<svg width="261" height="179" viewBox="0 0 261 179" fill="none" xmlns="http://www.w3.org/2000/svg">
<g clip-path="url(#clip0_4886_551)">
<path d="M241.486 162.701C232.934 168.579 222.516 174.533 212.273 177.341C209.32 178.174 206.273 178.706 203.189 178.927C200.305 179.136 197.404 178.933 194.59 178.325C187.198 176.665 180.341 173.759 173.707 170.363C171.539 169.252 169.396 168.09 167.266 166.903C163.789 164.963 160.347 162.956 156.895 160.996C156.378 160.699 155.864 160.408 155.347 160.12H155.344C154.511 159.648 153.676 159.182 152.838 158.723C152.691 158.641 152.544 158.562 152.394 158.48C150.812 157.615 149.203 156.769 147.567 155.944C147.366 155.845 147.166 155.743 146.965 155.644C143.799 154.059 140.546 152.622 137.217 151.338C135.031 150.507 132.816 149.758 130.579 149.119H130.576C129.721 148.876 128.863 148.647 128.001 148.437C125.418 147.798 122.786 147.333 120.127 147.046C116.462 146.646 112.755 146.672 109.097 147.125C108.85 147.157 108.606 147.188 108.358 147.224C98.4596 148.655 89.4257 153.478 79.4834 154.615C79.1608 154.652 78.8413 154.686 78.5187 154.711C78.3808 154.722 78.243 154.737 78.1052 154.745C75.2159 154.968 72.3083 154.904 69.4347 154.553C61.4063 153.597 53.5877 150.631 46.5492 146.894C30.0946 138.154 16.7505 124.722 8.63755 109.166C7.24438 106.5 6.00746 103.77 4.93192 100.987C1.92477 93.2687 0.268723 85.175 0.0234033 76.9968C-0.737774 48.6219 17.1264 20.1537 45.1741 7.32053C73.2249 -5.51264 110.125 -1.26884 132.747 18.446C146.47 30.4055 154.411 46.6117 164.738 61.0904C175.066 75.5662 189.745 89.3946 208.677 91.5038C218.322 92.5781 228.414 90.5001 237.658 93.203C242.776 94.7014 247.143 97.5683 250.661 101.221C253.026 103.7 255.005 106.459 256.543 109.42C257.671 111.562 258.586 113.789 259.278 116.076C259.406 116.497 259.525 116.918 259.641 117.34C264.246 134.315 256.888 152.11 241.486 162.701Z" fill="#F2F2F2"/>
<path d="M87.4461 131.971H58.0013C53.5899 131.971 50.0137 135.199 50.0137 139.181V139.181C50.0137 143.163 53.5899 146.39 58.0013 146.39H87.4461C91.8575 146.39 95.4337 143.163 95.4337 139.181C95.4337 135.199 91.8575 131.971 87.4461 131.971Z" fill="#3F3D56"/>
<path d="M78.5186 142.715V154.711C75.494 154.975 72.4456 154.922 69.4346 154.553V142.715H78.5186Z" fill="#3F3D56"/>
<path d="M109.097 147.125C108.85 147.156 108.605 147.187 108.358 147.224C98.4593 148.655 89.4254 153.478 79.4831 154.615C79.1605 154.652 78.841 154.686 78.5183 154.711C78.3805 154.722 78.2427 154.736 78.1049 154.745C75.6772 152.599 73.2496 150.314 70.9692 147.948C69.7319 146.667 68.5353 145.361 67.4108 144.038C64.4914 140.622 62.0167 137.111 60.3816 133.662C60.5476 132.008 59.4074 128.182 58.8624 125.253L58.8593 125.25C58.6275 124.02 58.5022 122.952 58.6181 122.265C59.2822 118.301 62.8688 118.756 63.9714 114.871C64.966 114.126 66.025 113.454 67.1383 112.861C67.3231 112.762 67.511 112.663 67.7052 112.564L79.6711 105.1L84.2444 109.149L91.2046 115.312L98.7475 121.988L92.3448 127.826C92.3448 127.826 97.695 133.393 103.95 140.815C105.629 142.808 107.374 144.937 109.097 147.125Z" fill="#2F2E41"/>
<path d="M212.272 142.715V177.341C209.32 178.174 206.273 178.706 203.188 178.927V142.715H212.272Z" fill="#3F3D56"/>
<path d="M224.019 139.888H194.575C190.163 139.888 186.587 143.116 186.587 147.097V147.097C186.587 151.079 190.163 154.307 194.575 154.307H224.019C228.431 154.307 232.007 151.079 232.007 147.097C232.007 143.116 228.431 139.888 224.019 139.888Z" fill="#3F3D56"/>
<path d="M152.393 158.48C150.811 157.615 149.202 156.77 147.566 155.944C147.366 155.845 147.165 155.743 146.965 155.644L148.042 155.229L150.949 154.101L150.977 154.089L151.009 154.185L152.393 158.48Z" fill="#FFB6B6"/>
<path d="M156.895 160.996C156.378 160.699 155.864 160.408 155.347 160.12H155.344C154.511 159.648 153.675 159.182 152.838 158.723C152.691 158.641 152.544 158.562 152.393 158.48C150.811 157.615 149.202 156.769 147.566 155.944C147.366 155.845 147.165 155.743 146.965 155.644C143.799 154.059 140.546 152.622 137.217 151.338C135.03 150.507 132.816 149.758 130.579 149.119H130.576L128.819 146.464L120.909 134.507L119.171 131.881C119.171 131.881 113.241 133.464 104.849 134.982C101.795 135.536 98.4186 136.079 94.8758 136.537C91.0887 137.023 87.1168 137.411 83.17 137.597C81.2874 137.688 79.4111 137.733 77.563 137.719C72.786 137.691 68.197 137.286 64.1781 136.325C62.8375 135.188 58.7966 133.642 55.9023 132.225H55.8991C54.6838 131.632 53.6751 131.063 53.1458 130.557C50.0948 127.645 52.7009 125.375 49.9883 122.197C49.9518 121.031 50.0177 119.865 50.1856 118.708C50.2138 118.516 50.242 118.321 50.2765 118.123L51.1316 105.015L57.4841 104.258L67.1508 103.104L77.6225 101.854L78.7752 110.003C78.7752 110.003 86.9289 109.63 97.2596 109.754C113.852 109.958 136.055 111.45 139.062 117.857C139.344 118.459 139.626 119.067 139.907 119.675C140.578 121.128 141.242 122.589 141.9 124.057C144.283 129.373 146.558 134.739 148.634 139.811C149.925 142.966 151.14 146.009 152.259 148.856C153.158 151.146 153.991 153.312 154.752 155.305C155.447 157.126 156.077 158.802 156.638 160.306C156.725 160.541 156.81 160.773 156.895 160.996Z" fill="#2F2E41"/>
<path d="M98.4583 81.5806L78.3936 66.1996L91.4479 54.2749L100.555 67.7394L134.315 73.7805C135.33 73.091 136.545 72.6829 137.813 72.6061C139.081 72.5293 140.345 72.787 141.454 73.3479C142.562 73.9087 143.465 74.7485 144.054 75.7648C144.642 76.781 144.89 77.9299 144.768 79.0713C144.645 80.2127 144.158 81.2972 143.364 82.1928C142.571 83.0883 141.506 83.7561 140.299 84.1147C139.092 84.4733 137.796 84.5073 136.568 84.2124C135.34 83.9176 134.234 83.3067 133.385 82.4542L98.4583 81.5806Z" fill="#FFB6B6"/>
<path d="M60.6599 45.9855C58.341 52.7944 80.4253 69.0337 80.4253 69.0337C80.6707 67.3991 93.1917 81.4946 94.0436 80.2181C96.4647 76.59 99.1287 67.6219 101.924 66.4757C103.522 65.8202 94.3525 56.7092 94.3525 56.7092C94.3525 56.7092 89.6749 51.1235 83.4991 44.0444C81.7942 42.0138 79.5478 40.4055 76.9691 39.3693C74.3903 38.3331 71.563 37.9027 68.7504 38.118C68.7504 38.118 62.9787 39.1766 60.6599 45.9855Z" fill="#3F3D56"/>
<path d="M70.4244 30.9117C77.9194 30.9117 83.9953 25.4276 83.9953 18.6626C83.9953 11.8977 77.9194 6.41357 70.4244 6.41357C62.9294 6.41357 56.8535 11.8977 56.8535 18.6626C56.8535 25.4276 62.9294 30.9117 70.4244 30.9117Z" fill="#FFB6B6"/>
<path d="M77.2099 39.0076C80.1335 40.5764 81.8825 43.459 82.8864 46.3922C84.7451 51.8227 85.864 57.4373 86.2182 63.1121L87.2786 80.1012L100.412 116.276C89.0297 124.969 46.2462 118.252 46.2462 118.252C46.2462 118.252 44.9329 117.856 46.2462 116.671C47.5596 115.486 48.8381 116.536 47.5248 115.35C46.2115 114.165 47.1168 115.486 47.5546 114.3C47.9924 113.115 47.5546 113.905 47.1168 113.51C46.6791 113.115 50.5058 109.559 50.5058 109.559L47.0037 88.794L42.626 46.9102C47.8792 40.9832 58.4442 37.4893 58.4442 37.4893L61.1741 33.0542L74.8233 34.0398L77.2099 39.0076Z" fill="#3F3D56"/>
<path d="M81.6116 12.1549C82.6663 12.865 83.4478 13.8558 83.8459 14.9877C83.9988 13.1378 84.0085 11.2805 83.8749 9.42941C83.715 8.12861 82.7004 7.83601 81.5255 7.49697C80.4645 7.19066 79.2646 6.84465 78.9417 5.58188C74.6758 1.83613 67.2498 2.02501 62.1675 3.33158C59.371 4.05057 57.7619 4.97432 57.618 5.51546L57.5881 5.62686L57.4745 5.67811C55.3189 6.65094 54.8993 9.72295 54.927 12.1287C54.9795 16.6613 56.7134 21.8091 57.6902 22.2273C57.7419 22.2494 57.755 22.2408 57.7774 22.2239C59.2481 21.163 61.0425 22.3046 61.8311 22.9251C62.2962 20.108 63.7938 17.5129 66.0846 15.5542C68.3755 13.5954 71.3275 12.3861 74.4692 12.1193C75.4952 12.0298 76.513 11.8758 77.5152 11.6583C78.0236 11.5396 78.5462 11.4777 79.0713 11.474C79.9752 11.4616 80.8617 11.6992 81.6116 12.1549Z" fill="#2F2E41"/>
<path d="M64.5116 100.035L60.3603 98.1162C60.1379 97.9732 59.9799 97.7627 59.9152 97.5232C59.8505 97.2837 59.8834 97.0312 60.0079 96.8118C60.1324 96.5923 60.3402 96.4207 60.5933 96.3281C60.8464 96.2355 61.128 96.2282 61.3866 96.3075L65.5379 98.2265C65.7603 98.3696 65.9183 98.5801 65.983 98.8196C66.0477 99.0591 66.0148 99.3116 65.8903 99.531C65.7658 99.7504 65.5581 99.9221 65.3049 100.015C65.0518 100.107 64.7702 100.115 64.5116 100.035Z" fill="#F9A826"/>
<path d="M50.54 94.8938L43.7109 71.9467L61.96 68.8286L60.9786 84.5793L84.9563 106.864C86.2257 106.817 87.4828 107.104 88.5743 107.691C89.6657 108.278 90.5444 109.139 91.1033 110.169C91.6621 111.199 91.8768 112.353 91.7213 113.491C91.5659 114.629 91.0469 115.702 90.2277 116.578C89.4084 117.455 88.3244 118.097 87.1077 118.427C85.8909 118.757 84.5941 118.76 83.3754 118.437C82.1566 118.113 81.0685 117.476 80.2438 116.604C79.4191 115.732 78.8934 114.662 78.7308 113.524L50.54 94.8938Z" fill="#FFB6B6"/>
<path d="M41.8439 46.2183C35.6495 50.6322 43.6 75.3213 43.6 75.3213C44.8309 74.102 46.2613 92.1226 47.7659 91.509C52.0421 89.765 59.8798 83.7514 62.9014 84.2415C64.6294 84.5219 62.819 72.3218 62.819 72.3218C62.819 72.3218 62.486 65.3265 61.8602 56.3339C61.7355 53.7886 60.8993 51.3131 59.4296 49.1379C57.9598 46.9627 55.9042 45.1585 53.4541 43.8933C53.4541 43.8933 48.0383 41.8045 41.8439 46.2183Z" fill="#3F3D56"/>
<path d="M256.543 109.42L8.63728 109.166C7.24411 106.5 6.00719 103.77 4.93164 100.986L250.66 101.221C253.025 103.7 255.005 106.458 256.543 109.42Z" fill="#3F3D56"/>
<path d="M177.585 168.743C176.304 169.303 175.011 169.843 173.707 170.363C171.539 169.252 169.397 168.09 167.267 166.903L175.167 163.77L177.585 168.743Z" fill="#FFB6B6"/>
<path d="M235.184 129.783C233.9 131.338 232.575 132.862 231.209 134.355C229.95 135.731 228.657 137.082 227.331 138.406C226.783 138.955 226.228 139.5 225.661 140.04C224.618 141.05 223.552 142.042 222.463 143.017C220.502 143.574 216.53 144.556 212.273 145.472C209.175 146.136 205.927 146.767 203.189 147.168C201.657 147.416 200.106 147.566 198.55 147.615C196.702 147.629 194.826 147.584 192.943 147.493C190.819 147.391 188.693 147.233 186.591 147.029C181.125 146.512 175.831 145.706 171.264 144.878C169.591 144.578 168.019 144.273 166.571 143.976C163.831 143.419 161.538 142.899 159.877 142.503C158.007 142.062 156.942 141.776 156.942 141.776L152.259 148.856L149.829 152.529L148.043 155.229L147.567 155.944C147.367 155.845 147.166 155.743 146.966 155.644C143.8 154.059 140.546 152.622 137.218 151.338C135.031 150.507 132.816 149.758 130.58 149.119H130.577C129.722 148.876 128.863 148.647 128.002 148.437C128.271 147.784 128.544 147.127 128.82 146.464C129.333 145.228 129.857 143.982 130.392 142.723C131.548 139.998 132.744 137.233 133.975 134.482C134.984 132.223 136.012 129.972 137.052 127.753C137.531 126.729 138.505 125.83 139.868 125.041C140.519 124.671 141.198 124.342 141.901 124.058C145.8 122.454 151.545 121.411 157.876 120.741C158.399 120.687 158.925 120.634 159.455 120.583C164.695 120.085 170.255 119.828 175.455 119.709C178.058 119.65 180.57 119.627 182.907 119.624C183.662 119.624 184.396 119.626 185.109 119.63H185.112C187.039 119.638 188.812 119.664 190.372 119.692C190.675 119.698 190.97 119.706 191.258 119.712H191.261C191.455 119.715 191.646 119.72 191.834 119.723C195.246 119.802 197.338 119.899 197.338 119.899L198.149 114.153L198.315 112.994L198.472 111.892V111.889L198.491 111.75L198.619 111.747L200.875 111.708L219.832 111.374L230.188 111.19L228.546 117.541L225.837 128.019C226.112 129.675 235.278 128.378 235.184 129.783Z" fill="#2F2E41"/>
<path d="M179.922 167.697C179.148 168.053 178.368 168.404 177.585 168.743C176.304 169.303 175.011 169.843 173.707 170.363C171.539 169.252 169.397 168.09 167.267 166.902C163.79 164.963 160.347 162.956 156.895 160.996C156.378 160.699 155.865 160.408 155.348 160.12H155.345C153.923 158.214 152.472 156.229 151.009 154.185C150.987 154.157 150.969 154.129 150.95 154.1C150.574 153.58 150.2 153.056 149.828 152.528C147.489 149.22 145.136 145.771 142.853 142.248L148.635 139.811L159.385 135.282L161.24 134.501L166.571 143.976L171.326 152.427L172.385 154.307L179.922 167.697Z" fill="#2F2E41"/>
<path d="M181.541 122.211L208.95 98.3526L216.547 78.9375L205.341 74.5396C199.586 79.516 193.364 95.0162 193.364 95.0162L174.503 116.675C174.356 116.72 174.209 116.768 174.064 116.826C173.215 117.164 172.476 117.694 171.92 118.365C171.364 119.036 171.009 119.826 170.89 120.657C170.77 121.488 170.89 122.332 171.238 123.109C171.586 123.886 172.15 124.569 172.876 125.092C173.602 125.614 174.464 125.959 175.381 126.093C176.298 126.227 177.237 126.145 178.108 125.855C178.979 125.565 179.753 125.078 180.354 124.439C180.956 123.801 181.365 123.033 181.541 122.211Z" fill="#FFB8B8"/>
<path d="M202.188 76.7071L216.402 80.7799L216.456 80.7718C221.746 79.972 226.136 72.1733 228.886 65.7718C229.791 63.6604 229.775 61.3175 228.839 59.2168C227.904 57.1161 226.119 55.4144 223.847 54.4557C222.166 53.7586 220.302 53.5 218.466 53.7091C216.63 53.9182 214.895 54.5866 213.458 55.6387L206.16 61.0217L202.188 76.7071Z" fill="#F9A826"/>
<path d="M235.127 130.069L235.21 129.97C239.644 124.661 233.579 111.515 232.662 109.608L236.785 108.506L236.067 101.42L235.72 98.2597L238.926 95.5116L238.937 95.4415L241.142 81.2788L244.027 71.9052C245.114 68.3615 245.137 64.6205 244.094 61.0662C243.05 57.5119 240.977 54.2724 238.088 51.6801L232.19 46.395L225.125 36.4128L213.278 36.1367L209.018 42.9672C205.056 43.697 201.504 45.658 198.98 48.5088C196.455 51.3595 195.119 54.9192 195.203 58.5679L195.604 76.752L191.353 99.282L191.234 103.374L187.062 107.348L187.833 111.366L184.713 112.488L183.185 118.197C182.602 118.855 178.751 123.249 178.716 124.474C178.711 124.658 178.856 124.839 179.173 125.044C181.666 126.654 195.599 130.142 201.869 128.045C208.549 125.813 234.727 130.005 234.99 130.047L235.127 130.069Z" fill="#F3CD03"/>
<path d="M218.166 33.0763C226.834 33.0763 233.861 26.7341 233.861 18.9105C233.861 11.0869 226.834 4.74463 218.166 4.74463C209.498 4.74463 202.472 11.0869 202.472 18.9105C202.472 26.7341 209.498 33.0763 218.166 33.0763Z" fill="#FFB8B8"/>
<path d="M216.252 33.2657C218.682 33.3 221.112 33.1467 223.513 32.8077C225.893 32.3708 231.219 28.8486 232.703 26.7291C233.806 25.1543 234.511 22.6951 234.909 20.9096C235.444 18.5468 235.424 16.1088 234.849 13.7535C234.274 11.3983 233.157 9.17827 231.572 7.23725C230.962 6.42537 230.121 5.77727 229.137 5.36151C229.05 5.33073 228.96 5.30345 228.869 5.28012C227.435 4.93958 226.147 4.21997 225.169 3.21367C224.98 3.01014 224.774 2.81919 224.554 2.64231C223.449 1.80073 222.139 1.2071 220.732 0.909937C218.459 0.36104 215.171 0.905893 210.958 2.53093C208.841 3.34738 206.526 3.05191 204.746 2.70324C204.646 2.68583 204.543 2.69232 204.446 2.72209C204.35 2.75185 204.264 2.80384 204.197 2.87288C203.439 3.51488 202.441 3.87425 201.401 3.87874C200.765 3.90397 200.097 4.69945 199.29 5.73678C199.107 5.97225 198.893 6.24707 198.739 6.41422L198.718 6.09309L198.358 6.45134C197.792 7.0144 197.393 7.69757 197.199 8.43724C197.004 9.17691 197.02 9.94901 197.245 10.6817C197.47 11.4143 197.896 12.0836 198.485 12.6274C199.074 13.1711 199.805 13.5715 200.612 13.7913C201.252 13.9451 201.908 14.0395 202.569 14.0729C202.97 14.1055 203.385 14.1391 203.782 14.2013C205.057 14.437 206.242 14.9669 207.222 15.7395C208.202 16.512 208.944 17.5008 209.374 18.6092C209.476 18.8654 209.641 19.097 209.858 19.2863C210.075 19.4755 210.337 19.6173 210.624 19.7007C210.911 19.784 211.215 19.8067 211.514 19.767C211.812 19.7273 212.096 19.6262 212.345 19.4716C212.758 19.1808 213.244 18.9846 213.76 18.8998C214.276 18.815 214.807 18.8441 215.307 18.9846C215.74 19.2018 216.077 19.5467 216.262 19.9614C216.486 20.4235 216.857 20.8148 217.329 21.0855C218.942 21.8362 219.053 25.1616 218.474 27.9339C217.915 30.606 216.812 32.5391 215.789 32.6346C215.003 32.7081 214.913 32.7586 214.856 32.8842L214.805 32.9966L214.893 33.1018C215.328 33.244 215.791 33.2999 216.252 33.2657Z" fill="#2F2E41"/>
<path d="M206.086 72.4247L200.035 61.5352C191.251 62.0767 173.818 71.2434 173.818 71.2434L140.834 77.5555C139.857 77.2165 138.798 77.1158 137.764 77.2636C136.731 77.4113 135.758 77.8023 134.945 78.3971C134.131 78.992 133.506 79.7698 133.132 80.6521C132.757 81.5345 132.647 82.4903 132.812 83.4233C132.977 84.3564 133.411 85.2337 134.071 85.9671C134.731 86.7005 135.593 87.264 136.571 87.6009C137.549 87.9378 138.609 88.0362 139.642 87.8863C140.676 87.7363 141.647 87.3432 142.459 86.7466L184.417 84.032L206.086 72.4247Z" fill="#FFB8B8"/>
<path d="M203.645 74.2124L219.449 63.6115L222.233 54.5564C222.772 52.777 222.75 50.8968 222.167 49.1285C221.585 47.3601 220.466 45.774 218.937 44.5494C216.853 42.9019 214.153 42.0304 211.384 42.1111C208.614 42.1917 205.982 43.2185 204.02 44.9838C198.072 50.3419 191.289 57.817 192.746 63.0003L192.761 63.0529L203.645 74.2124Z" fill="#F3CD03"/>
<path d="M184.082 102.567H141.794V107.656H184.082V102.567Z" fill="white"/>
<path d="M76.0123 102.567H33.7246V107.656H76.0123V102.567Z" fill="white"/>
<path d="M80.9502 78.0935V102.325C80.9505 102.633 81.0865 102.93 81.3284 103.148C81.5703 103.366 81.8983 103.489 82.2405 103.489H122.024C122.366 103.489 122.694 103.366 122.936 103.148C123.178 102.93 123.314 102.633 123.314 102.325V78.0935C123.313 77.785 123.177 77.4893 122.935 77.2713C122.693 77.0532 122.365 76.9306 122.024 76.9302H82.2405C81.8986 76.9306 81.5709 77.0532 81.3291 77.2713C81.0873 77.4893 80.951 77.785 80.9502 78.0935Z" fill="#3F3D56"/>
<path d="M81.8838 78.3947V102.025C81.8841 102.19 81.9569 102.349 82.0861 102.465C82.2154 102.582 82.3906 102.648 82.5734 102.648H121.693C121.875 102.648 122.051 102.582 122.18 102.465C122.309 102.349 122.382 102.19 122.382 102.025V78.3947C122.382 78.2295 122.31 78.0711 122.18 77.9541C122.051 77.8372 121.876 77.7714 121.693 77.771H82.5734C82.3904 77.7714 82.215 77.8372 82.0857 77.9541C81.9564 78.0711 81.8838 78.2295 81.8838 78.3947Z" fill="#3F3D56"/>
<path d="M80.1186 107.05C80.1915 107.133 80.2841 107.199 80.3896 107.245C80.495 107.29 80.6105 107.313 80.7274 107.313H123.326C123.442 107.313 123.557 107.289 123.662 107.244C123.768 107.199 123.86 107.133 123.934 107.051C124.007 106.969 124.059 106.874 124.087 106.772C124.114 106.67 124.116 106.563 124.092 106.46L123.431 103.625C123.403 103.51 123.344 103.402 123.259 103.312C123.174 103.223 123.065 103.153 122.943 103.111C122.854 103.08 122.76 103.064 122.665 103.064H81.386C81.2908 103.064 81.1965 103.08 81.1079 103.111C80.9855 103.153 80.8767 103.223 80.7915 103.312C80.7062 103.402 80.6472 103.51 80.6198 103.625L79.9586 106.46C79.935 106.563 79.9372 106.669 79.9649 106.771C79.9926 106.873 80.0451 106.969 80.1186 107.05Z" fill="#2F2E41"/>
<path d="M121.203 104.285H122.209C122.294 104.285 122.362 104.223 122.362 104.147V103.713C122.362 103.636 122.294 103.575 122.209 103.575H121.203C121.119 103.575 121.05 103.636 121.05 103.713V104.147C121.05 104.223 121.119 104.285 121.203 104.285Z" fill="#3F3D56"/>
<path d="M118.579 104.285H119.585C119.67 104.285 119.738 104.223 119.738 104.147V103.713C119.738 103.636 119.67 103.575 119.585 103.575H118.579C118.495 103.575 118.426 103.636 118.426 103.713V104.147C118.426 104.223 118.495 104.285 118.579 104.285Z" fill="#3F3D56"/>
<path d="M115.955 104.285H116.961C117.046 104.285 117.114 104.223 117.114 104.147V103.713C117.114 103.636 117.046 103.575 116.961 103.575H115.955C115.871 103.575 115.802 103.636 115.802 103.713V104.147C115.802 104.223 115.871 104.285 115.955 104.285Z" fill="#3F3D56"/>
<path d="M113.331 104.285H114.337C114.422 104.285 114.49 104.223 114.49 104.147V103.713C114.49 103.636 114.422 103.575 114.337 103.575H113.331C113.247 103.575 113.178 103.636 113.178 103.713V104.147C113.178 104.223 113.247 104.285 113.331 104.285Z" fill="#3F3D56"/>
<path d="M110.707 104.285H111.713C111.798 104.285 111.866 104.223 111.866 104.147V103.713C111.866 103.636 111.798 103.575 111.713 103.575H110.707C110.623 103.575 110.554 103.636 110.554 103.713V104.147C110.554 104.223 110.623 104.285 110.707 104.285Z" fill="#3F3D56"/>
<path d="M108.083 104.285H109.089C109.174 104.285 109.242 104.223 109.242 104.147V103.713C109.242 103.636 109.174 103.575 109.089 103.575H108.083C107.999 103.575 107.93 103.636 107.93 103.713V104.147C107.93 104.223 107.999 104.285 108.083 104.285Z" fill="#3F3D56"/>
<path d="M105.459 104.285H106.465C106.55 104.285 106.618 104.223 106.618 104.147V103.713C106.618 103.636 106.55 103.575 106.465 103.575H105.459C105.375 103.575 105.306 103.636 105.306 103.713V104.147C105.306 104.223 105.375 104.285 105.459 104.285Z" fill="#3F3D56"/>
<path d="M102.835 104.285H103.841C103.926 104.285 103.994 104.223 103.994 104.147V103.713C103.994 103.636 103.926 103.575 103.841 103.575H102.835C102.751 103.575 102.682 103.636 102.682 103.713V104.147C102.682 104.223 102.751 104.285 102.835 104.285Z" fill="#3F3D56"/>
<path d="M100.211 104.285H101.217C101.302 104.285 101.37 104.223 101.37 104.147V103.713C101.37 103.636 101.302 103.575 101.217 103.575H100.211C100.127 103.575 100.058 103.636 100.058 103.713V104.147C100.058 104.223 100.127 104.285 100.211 104.285Z" fill="#3F3D56"/>
<path d="M97.587 104.285H98.5932C98.6776 104.285 98.7461 104.223 98.7461 104.147V103.713C98.7461 103.636 98.6776 103.575 98.5932 103.575H97.587C97.5026 103.575 97.4341 103.636 97.4341 103.713V104.147C97.4341 104.223 97.5026 104.285 97.587 104.285Z" fill="#3F3D56"/>
<path d="M94.963 104.285H95.9691C96.0536 104.285 96.1221 104.223 96.1221 104.147V103.713C96.1221 103.636 96.0536 103.575 95.9691 103.575H94.963C94.8785 103.575 94.8101 103.636 94.8101 103.713V104.147C94.8101 104.223 94.8785 104.285 94.963 104.285Z" fill="#3F3D56"/>
<path d="M92.339 104.285H93.3451C93.4296 104.285 93.498 104.223 93.498 104.147V103.713C93.498 103.636 93.4296 103.575 93.3451 103.575H92.339C92.2545 103.575 92.186 103.636 92.186 103.713V104.147C92.186 104.223 92.2545 104.285 92.339 104.285Z" fill="#3F3D56"/>
<path d="M89.7149 104.285H90.7211C90.8056 104.285 90.874 104.223 90.874 104.147V103.713C90.874 103.636 90.8056 103.575 90.7211 103.575H89.7149C89.6305 103.575 89.562 103.636 89.562 103.713V104.147C89.562 104.223 89.6305 104.285 89.7149 104.285Z" fill="#3F3D56"/>
<path d="M87.0909 104.285H88.0971C88.1815 104.285 88.25 104.223 88.25 104.147V103.713C88.25 103.636 88.1815 103.575 88.0971 103.575H87.0909C87.0065 103.575 86.938 103.636 86.938 103.713V104.147C86.938 104.223 87.0065 104.285 87.0909 104.285Z" fill="#3F3D56"/>
<path d="M84.4669 104.285H85.4731C85.5575 104.285 85.626 104.223 85.626 104.147V103.713C85.626 103.636 85.5575 103.575 85.4731 103.575H84.4669C84.3824 103.575 84.314 103.636 84.314 103.713V104.147C84.314 104.223 84.3824 104.285 84.4669 104.285Z" fill="#3F3D56"/>
<path d="M81.8429 104.285H82.849C82.9335 104.285 83.002 104.223 83.002 104.147V103.713C83.002 103.636 82.9335 103.575 82.849 103.575H81.8429C81.7584 103.575 81.6899 103.636 81.6899 103.713V104.147C81.6899 104.223 81.7584 104.285 81.8429 104.285Z" fill="#3F3D56"/>
<path d="M121.233 105.47H122.24C122.324 105.47 122.393 105.408 122.393 105.332V104.897C122.393 104.821 122.324 104.759 122.24 104.759H121.233C121.149 104.759 121.081 104.821 121.081 104.897V105.332C121.081 105.408 121.149 105.47 121.233 105.47Z" fill="#3F3D56"/>
<path d="M118.609 105.47H119.616C119.7 105.47 119.769 105.408 119.769 105.332V104.897C119.769 104.821 119.7 104.759 119.616 104.759H118.609C118.525 104.759 118.457 104.821 118.457 104.897V105.332C118.457 105.408 118.525 105.47 118.609 105.47Z" fill="#3F3D56"/>
<path d="M115.985 105.47H116.992C117.076 105.47 117.145 105.408 117.145 105.332V104.897C117.145 104.821 117.076 104.759 116.992 104.759H115.985C115.901 104.759 115.833 104.821 115.833 104.897V105.332C115.833 105.408 115.901 105.47 115.985 105.47Z" fill="#3F3D56"/>
<path d="M113.361 105.47H114.368C114.452 105.47 114.521 105.408 114.521 105.332V104.897C114.521 104.821 114.452 104.759 114.368 104.759H113.361C113.277 104.759 113.209 104.821 113.209 104.897V105.332C113.209 105.408 113.277 105.47 113.361 105.47Z" fill="#3F3D56"/>
<path d="M110.737 105.47H111.744C111.828 105.47 111.896 105.408 111.896 105.332V104.897C111.896 104.821 111.828 104.759 111.744 104.759H110.737C110.653 104.759 110.584 104.821 110.584 104.897V105.332C110.584 105.408 110.653 105.47 110.737 105.47Z" fill="#3F3D56"/>
<path d="M108.113 105.47H109.12C109.204 105.47 109.272 105.408 109.272 105.332V104.897C109.272 104.821 109.204 104.759 109.12 104.759H108.113C108.029 104.759 107.96 104.821 107.96 104.897V105.332C107.96 105.408 108.029 105.47 108.113 105.47Z" fill="#3F3D56"/>
<path d="M105.489 105.47H106.496C106.58 105.47 106.648 105.408 106.648 105.332V104.897C106.648 104.821 106.58 104.759 106.496 104.759H105.489C105.405 104.759 105.336 104.821 105.336 104.897V105.332C105.336 105.408 105.405 105.47 105.489 105.47Z" fill="#3F3D56"/>
<path d="M102.865 105.47H103.871C103.956 105.47 104.024 105.408 104.024 105.332V104.897C104.024 104.821 103.956 104.759 103.871 104.759H102.865C102.781 104.759 102.712 104.821 102.712 104.897V105.332C102.712 105.408 102.781 105.47 102.865 105.47Z" fill="#3F3D56"/>
<path d="M100.241 105.47H101.247C101.332 105.47 101.4 105.408 101.4 105.332V104.897C101.4 104.821 101.332 104.759 101.247 104.759H100.241C100.157 104.759 100.088 104.821 100.088 104.897V105.332C100.088 105.408 100.157 105.47 100.241 105.47Z" fill="#3F3D56"/>
<path d="M97.6173 105.47H98.6234C98.7079 105.47 98.7764 105.408 98.7764 105.332V104.897C98.7764 104.821 98.7079 104.759 98.6234 104.759H97.6173C97.5328 104.759 97.4644 104.821 97.4644 104.897V105.332C97.4644 105.408 97.5328 105.47 97.6173 105.47Z" fill="#3F3D56"/>
<path d="M94.9932 105.47H95.9994C96.0839 105.47 96.1523 105.408 96.1523 105.332V104.897C96.1523 104.821 96.0839 104.759 95.9994 104.759H94.9932C94.9088 104.759 94.8403 104.821 94.8403 104.897V105.332C94.8403 105.408 94.9088 105.47 94.9932 105.47Z" fill="#3F3D56"/>
<path d="M92.3692 105.47H93.3754C93.4599 105.47 93.5283 105.408 93.5283 105.332V104.897C93.5283 104.821 93.4599 104.759 93.3754 104.759H92.3692C92.2848 104.759 92.2163 104.821 92.2163 104.897V105.332C92.2163 105.408 92.2848 105.47 92.3692 105.47Z" fill="#3F3D56"/>
<path d="M89.7452 105.47H90.7514C90.8358 105.47 90.9043 105.408 90.9043 105.332V104.897C90.9043 104.821 90.8358 104.759 90.7514 104.759H89.7452C89.6607 104.759 89.5923 104.821 89.5923 104.897V105.332C89.5923 105.408 89.6607 105.47 89.7452 105.47Z" fill="#3F3D56"/>
<path d="M87.1212 105.47H88.1274C88.2118 105.47 88.2803 105.408 88.2803 105.332V104.897C88.2803 104.821 88.2118 104.759 88.1274 104.759H87.1212C87.0367 104.759 86.9683 104.821 86.9683 104.897V105.332C86.9683 105.408 87.0367 105.47 87.1212 105.47Z" fill="#3F3D56"/>
<path d="M84.4972 105.47H85.5033C85.5878 105.47 85.6562 105.408 85.6562 105.332V104.897C85.6562 104.821 85.5878 104.759 85.5033 104.759H84.4972C84.4127 104.759 84.3442 104.821 84.3442 104.897V105.332C84.3442 105.408 84.4127 105.47 84.4972 105.47Z" fill="#3F3D56"/>
<path d="M81.8731 105.47H82.8793C82.9638 105.47 83.0322 105.408 83.0322 105.332V104.897C83.0322 104.821 82.9638 104.759 82.8793 104.759H81.8731C81.7887 104.759 81.7202 104.821 81.7202 104.897V105.332C81.7202 105.408 81.7887 105.47 81.8731 105.47Z" fill="#3F3D56"/>
<path d="M99.4547 106.891H109.645C109.729 106.891 109.798 106.829 109.798 106.753V106.318C109.798 106.242 109.729 106.18 109.645 106.18H99.4547C99.3702 106.18 99.3018 106.242 99.3018 106.318V106.753C99.3018 106.829 99.3702 106.891 99.4547 106.891Z" fill="#3F3D56"/>
</g>
<defs>
<clipPath id="clip0_4886_551">
<rect width="261" height="179" fill="white"/>
</clipPath>
</defs>
</svg>
