<svg width="261" height="179" viewBox="0 0 261 179" fill="none" xmlns="http://www.w3.org/2000/svg">
<g clip-path="url(#clip0_4886_513)">
<path d="M261 96.1108V171.308C260.998 173.347 260.096 175.302 258.494 176.744C256.892 178.186 254.72 178.998 252.455 179H188.376L188.971 178.322L260.247 96.9719L261 96.1108Z" fill="#F2F2F2"/>
<path d="M101.994 69.623H28.4139C27.811 69.623 27.2328 69.8386 26.8065 70.2224C26.3801 70.6061 26.1406 71.1266 26.1406 71.6693C26.1406 72.212 26.3801 72.7325 26.8065 73.1163C27.2328 73.5 27.811 73.7156 28.4139 73.7156H101.994C102.597 73.7156 103.176 73.5 103.602 73.1163C104.028 72.7325 104.268 72.212 104.268 71.6693C104.268 71.1266 104.028 70.6061 103.602 70.2224C103.176 69.8386 102.597 69.623 101.994 69.623Z" fill="#E6E6E6"/>
<path d="M51.2277 58.1489H28.4139C27.811 58.1489 27.2328 58.3645 26.8065 58.7483C26.3801 59.132 26.1406 59.6525 26.1406 60.1952C26.1406 60.7379 26.3801 61.2584 26.8065 61.6422C27.2328 62.0259 27.811 62.2415 28.4139 62.2415H51.2277C51.8306 62.2415 52.4089 62.0259 52.8352 61.6422C53.2615 61.2584 53.501 60.7379 53.501 60.1952C53.501 59.6525 53.2615 59.132 52.8352 58.7483C52.4089 58.3645 51.8306 58.1489 51.2277 58.1489Z" fill="#E6E6E6"/>
<path d="M252.454 0H8.54558C6.27999 0.00245555 4.10797 0.813676 2.50596 2.25572C0.90394 3.69777 0.00272796 5.6529 0 7.69225V171.308C0.00272796 173.347 0.90394 175.302 2.50596 176.744C4.10797 178.186 6.27999 178.998 8.54558 179H252.454C254.72 178.998 256.892 178.186 258.494 176.744C260.096 175.302 260.997 173.347 261 171.308V7.69225C260.997 5.6529 260.096 3.69777 258.494 2.25572C256.892 0.813676 254.72 0.00245555 252.454 0ZM260.247 171.308C260.247 172.229 260.045 173.141 259.654 173.992C259.262 174.843 258.688 175.616 257.964 176.268C257.241 176.919 256.382 177.436 255.436 177.788C254.491 178.141 253.478 178.322 252.454 178.322H8.54558C6.47893 178.322 4.49692 177.583 3.03557 176.268C1.57423 174.952 0.753247 173.168 0.753247 171.308V53.4544C0.753247 39.4572 6.93043 26.0334 17.9259 16.1359C28.9213 6.23838 43.8344 0.67803 59.3843 0.67803H252.454C253.478 0.67803 254.491 0.85946 255.436 1.21196C256.382 1.56446 257.241 2.08112 257.964 2.73245C258.688 3.38378 259.262 4.15702 259.654 5.00803C260.045 5.85903 260.247 6.77113 260.247 7.69225V171.308Z" fill="#E6E6E6"/>
<path d="M237.232 29.5853H23.7878C23.6879 29.5853 23.5921 29.5495 23.5214 29.486C23.4508 29.4224 23.4111 29.3362 23.4111 29.2462C23.4111 29.1563 23.4508 29.0701 23.5214 29.0065C23.5921 28.9429 23.6879 28.9072 23.7878 28.9072H237.232C237.332 28.9072 237.427 28.9429 237.498 29.0065C237.569 29.0701 237.608 29.1563 237.608 29.2462C237.608 29.3362 237.569 29.4224 237.498 29.486C237.427 29.5495 237.332 29.5853 237.232 29.5853Z" fill="#E6E6E6"/>
<path d="M34.4662 19.408C36.2252 19.408 37.6512 18.0958 37.6512 16.4772C37.6512 14.8586 36.2252 13.5464 34.4662 13.5464C32.7072 13.5464 31.2812 14.8586 31.2812 16.4772C31.2812 18.0958 32.7072 19.408 34.4662 19.408Z" fill="#E6E6E6"/>
<path d="M45.4691 19.408C47.2281 19.408 48.6541 18.0958 48.6541 16.4772C48.6541 14.8586 47.2281 13.5464 45.4691 13.5464C43.7101 13.5464 42.2842 14.8586 42.2842 16.4772C42.2842 18.0958 43.7101 19.408 45.4691 19.408Z" fill="#E6E6E6"/>
<path d="M56.4721 19.408C58.2311 19.408 59.657 18.0958 59.657 16.4772C59.657 14.8586 58.2311 13.5464 56.4721 13.5464C54.7131 13.5464 53.2871 14.8586 53.2871 16.4772C53.2871 18.0958 54.7131 19.408 56.4721 19.408Z" fill="#E6E6E6"/>
<path d="M69.0179 18.7934C68.9677 18.7934 68.918 18.7844 68.8718 18.7669C68.8256 18.7494 68.7837 18.7237 68.7487 18.6914L66.5996 16.7139C66.5308 16.6506 66.4922 16.5655 66.4922 16.4769C66.4922 16.3883 66.5308 16.3032 66.5996 16.2398L68.7487 14.2625C68.7831 14.2302 68.8243 14.2043 68.87 14.1864C68.9156 14.1685 68.9647 14.159 69.0145 14.1582C69.0642 14.1575 69.1137 14.1657 69.1599 14.1823C69.2061 14.1989 69.2482 14.2235 69.2838 14.2549C69.3194 14.2862 69.3477 14.3235 69.3672 14.3648C69.3866 14.406 69.3968 14.4503 69.3971 14.4951C69.3974 14.5399 69.3878 14.5843 69.369 14.6258C69.3501 14.6672 69.3223 14.7049 69.2871 14.7366L67.3957 16.4769L69.2871 18.2173C69.339 18.265 69.374 18.3254 69.3878 18.391C69.4017 18.4565 69.3938 18.5243 69.365 18.5858C69.3363 18.6473 69.288 18.6998 69.2263 18.7368C69.1645 18.7737 69.092 18.7934 69.0179 18.7934Z" fill="#E6E6E6"/>
<path d="M72.6286 18.7935C72.5544 18.7935 72.4819 18.7738 72.4202 18.7369C72.3584 18.7 72.3102 18.6475 72.2814 18.586C72.2527 18.5245 72.2447 18.4567 72.2586 18.3911C72.2725 18.3256 72.3075 18.2652 72.3593 18.2175L74.2505 16.477L72.3593 14.7368C72.2906 14.6723 72.253 14.586 72.2545 14.4967C72.2561 14.4074 72.2968 14.3222 72.3678 14.2597C72.4387 14.1973 72.5342 14.1625 72.6334 14.1631C72.7327 14.1636 72.8277 14.1994 72.8978 14.2627L75.0466 16.24C75.1155 16.3033 75.1541 16.3884 75.1541 16.477C75.1541 16.5657 75.1155 16.6508 75.0466 16.7141L72.8978 18.6916C72.8627 18.7239 72.8209 18.7496 72.7746 18.7671C72.7284 18.7846 72.6787 18.7936 72.6286 18.7935Z" fill="#E6E6E6"/>
<path d="M218.198 13.8857H214.202C214.093 13.8857 213.986 13.9049 213.886 13.9422C213.786 13.9795 213.695 14.0342 213.618 14.1031C213.542 14.1721 213.481 14.2539 213.44 14.344C213.398 14.4341 213.377 14.5307 213.377 14.6282V18.2285C213.377 18.326 213.398 18.4226 213.44 18.5127C213.481 18.6028 213.542 18.6846 213.618 18.7536C213.695 18.8225 213.786 18.8772 213.886 18.9145C213.986 18.9518 214.093 18.971 214.202 18.971H218.198C218.417 18.9712 218.627 18.8931 218.783 18.7539C218.938 18.6147 219.026 18.4258 219.026 18.2285V14.6282C219.026 14.4309 218.938 14.242 218.783 14.1028C218.627 13.9636 218.417 13.8856 218.198 13.8857Z" fill="#E6E6E6"/>
<path d="M208.406 13.8857H204.41C204.301 13.8857 204.194 13.9049 204.094 13.9422C203.994 13.9795 203.903 14.0342 203.826 14.1031C203.75 14.1721 203.689 14.2539 203.648 14.344C203.606 14.4341 203.585 14.5307 203.585 14.6282V18.2285C203.585 18.326 203.606 18.4226 203.648 18.5127C203.689 18.6028 203.75 18.6846 203.826 18.7536C203.903 18.8225 203.994 18.8772 204.094 18.9145C204.194 18.9518 204.301 18.971 204.41 18.971H208.406C208.625 18.9712 208.835 18.8931 208.991 18.7539C209.146 18.6147 209.234 18.4258 209.234 18.2285V14.6282C209.234 14.4309 209.146 14.242 208.991 14.1028C208.835 13.9636 208.625 13.8856 208.406 13.8857Z" fill="#E6E6E6"/>
<path d="M227.425 14.0552H223.429C223.321 14.0551 223.214 14.0743 223.114 14.1116C223.014 14.1489 222.923 14.2036 222.846 14.2726C222.769 14.3415 222.709 14.4234 222.667 14.5135C222.626 14.6036 222.604 14.7001 222.604 14.7976V18.398C222.604 18.4955 222.626 18.592 222.667 18.6821C222.709 18.7722 222.769 18.8541 222.846 18.923C222.923 18.992 223.014 19.0466 223.114 19.0839C223.214 19.1212 223.321 19.1404 223.429 19.1404H227.425C227.644 19.1406 227.855 19.0625 228.01 18.9234C228.165 18.7842 228.253 18.5952 228.254 18.398V14.7976C228.253 14.6003 228.165 14.4114 228.01 14.2722C227.855 14.133 227.644 14.055 227.425 14.0552Z" fill="#E6E6E6"/>
<path d="M146.48 15.4248H114.539C114.272 15.4248 114.016 15.5202 113.828 15.6899C113.639 15.8597 113.533 16.0899 113.533 16.33C113.533 16.57 113.639 16.8003 113.828 16.97C114.016 17.1398 114.272 17.2351 114.539 17.2351H146.48C146.747 17.2351 147.003 17.1398 147.191 16.97C147.38 16.8003 147.486 16.57 147.486 16.33C147.486 16.0899 147.38 15.8597 147.191 15.6899C147.003 15.5202 146.747 15.4248 146.48 15.4248Z" fill="#E6E6E6"/>
<path d="M60.8647 139.148L41.7635 138.604C39.1143 138.529 36.1351 138.533 34.2455 139.765C32.1009 141.164 32.4256 143.642 34.2062 145.249C35.9868 146.856 38.83 147.775 41.6206 148.521C56.4459 152.488 72.8534 153.293 88.7847 152.395C104.716 151.498 120.319 148.961 135.846 146.432C137.318 146.192 138.987 145.847 139.588 144.925C140.169 144.032 139.409 142.956 138.228 142.379C137.047 141.803 135.55 141.608 134.107 141.437C107.951 138.343 81.5127 137.664 55.2038 139.411" fill="#F3CD03"/>
<path d="M95.1841 125.924V121.856C91.9044 121.898 80.168 121.826 77.1062 121.856C76.8783 136.074 75.4817 133.289 88.4229 133.345C89.0177 133.347 89.5874 133.56 90.0075 133.939C90.4276 134.319 90.6639 134.832 90.6647 135.367V135.428C90.6647 135.965 90.4279 136.479 90.0066 136.858C89.5853 137.237 89.0139 137.45 88.4181 137.45H77.1062V141.519H95.1841C95.2095 141.505 95.1658 137.59 95.1842 137.45C95.9485 125.665 94.4361 129.903 83.4464 129.431C82.9547 129.408 82.4915 129.216 82.1525 128.895C81.8136 128.573 81.625 128.147 81.6256 127.704V127.653C81.6256 127.194 81.828 126.755 82.1882 126.43C82.5484 126.106 83.0369 125.924 83.5463 125.924H95.1841Z" fill="#3F3D56"/>
<path d="M117.405 125.924V121.856C114.125 121.898 102.389 121.826 99.3269 121.856C99.097 136.198 97.678 133.239 110.984 133.347C111.49 133.351 111.974 133.535 112.33 133.859C112.686 134.183 112.885 134.62 112.885 135.075C112.885 135.289 112.885 135.508 112.885 135.722C112.885 135.949 112.836 136.174 112.739 136.384C112.643 136.593 112.501 136.784 112.323 136.944C112.144 137.105 111.933 137.232 111.7 137.319C111.467 137.406 111.217 137.45 110.965 137.45H99.3269V141.519H117.405C117.43 141.505 117.387 137.59 117.405 137.45C118.169 125.665 116.657 129.903 105.667 129.431C105.175 129.408 104.712 129.216 104.373 128.895C104.034 128.573 103.846 128.147 103.846 127.704V127.653C103.846 127.194 104.049 126.755 104.409 126.43C104.769 126.106 105.258 125.924 105.767 125.924H117.405Z" fill="#3F3D56"/>
<path d="M71.8334 125.924V121.855H53.7555C53.7427 125.484 53.7647 135.088 53.7555 138.806C50.2119 144.206 70.3429 140.468 71.8344 141.52C71.8334 141.518 71.8334 137.45 71.8334 137.45C58.0787 137.386 57.7331 139.703 58.1756 128.49C58.2022 127.802 58.5246 127.149 59.075 126.67C59.6253 126.192 60.3606 125.924 61.1259 125.923C65.1024 125.924 71.8334 125.924 71.8334 125.924Z" fill="#3F3D56"/>
<path d="M107.567 90.5551L88.4657 90.102C85.8164 90.0392 82.8372 90.0424 80.9476 91.0697C78.803 92.2356 79.1277 94.3013 80.9084 95.6411C82.689 96.9809 85.5322 97.7464 88.3227 98.3687C103.148 101.675 119.556 102.346 135.487 101.598C151.418 100.85 167.022 98.7351 182.548 96.6273C184.021 96.4273 185.69 96.1397 186.29 95.3707C186.871 94.6269 186.111 93.7298 184.93 93.2491C183.749 92.7683 182.253 92.6063 180.809 92.4632C154.609 89.8833 128.212 89.3183 101.906 90.7744" fill="#F3CD03"/>
<path d="M104.223 72.6983C103.915 78.979 106.48 80.9559 97.6316 80.1559C97.0338 76.4091 100.065 71.2094 93.1126 72.5295C94.5054 75.2476 89.2324 95.8687 97.6305 92.1905C98.1022 85.9951 94.9934 83.2777 104.223 84.2256C104.963 88.0554 101.509 93.6913 108.742 92.3606C107.349 89.6412 112.623 69.022 104.223 72.6983Z" fill="#3F3D56"/>
<path d="M150.548 72.6983C151.168 73.043 144.865 79.0459 144.729 79.5378C144.539 79.118 138.523 73.2449 139.249 72.6985C130.877 68.9744 136.095 89.7153 134.728 92.3621C134.73 92.3612 139.249 92.3612 139.249 92.3612V79.4792C145.602 87.1917 144.422 85.8939 150.548 79.1005L150.548 92.3612C158.92 96.0865 153.702 75.343 155.069 72.6974C155.067 72.6983 150.548 72.6983 150.548 72.6983Z" fill="#3F3D56"/>
<path d="M130.587 72.6982H112.509C111.447 78.4011 114.959 76.4885 119.289 76.7663L119.288 92.3611H123.807V76.7664C128.117 76.5026 131.662 78.376 130.587 72.6982Z" fill="#3F3D56"/>
<path d="M163.353 88.2929C162.309 83.1372 162.309 77.854 163.353 72.6982H158.834C158.86 75.2757 158.826 85.6765 158.828 90.4327C158.828 90.946 159.054 91.4384 159.457 91.8016C159.86 92.1648 160.407 92.369 160.977 92.3694C165.531 92.3748 174.223 92.3446 176.912 92.3612L176.912 88.2929H163.353Z" fill="#3F3D56"/>
<path d="M47.8997 88.9712H29.5302C28.6313 88.9712 27.7691 89.2927 27.1334 89.8649C26.4977 90.4371 26.1406 91.2131 26.1406 92.0223C26.1406 92.8315 26.4977 93.6076 27.1334 94.1798C27.7691 94.752 28.6313 95.0735 29.5302 95.0735H47.8997C48.7987 95.0735 49.6609 94.752 50.2966 94.1798C50.9322 93.6076 51.2893 92.8315 51.2893 92.0223C51.2893 91.2131 50.9322 90.4371 50.2966 89.8649C49.6609 89.2927 48.7987 88.9712 47.8997 88.9712Z" fill="#E6E6E6"/>
<path d="M214.446 175.463L210.717 175.463L208.943 162.516L214.447 162.516L214.446 175.463Z" fill="#FFB6B6"/>
<path d="M214.577 178.965L203.11 178.965V178.834C203.11 177.769 203.581 176.747 204.418 175.993C205.255 175.24 206.39 174.817 207.574 174.817L209.669 173.386L213.577 174.817L214.578 174.817L214.577 178.965Z" fill="#2F2E41"/>
<path d="M227.628 175.463L223.899 175.463L222.125 162.516L227.629 162.516L227.628 175.463Z" fill="#FFB6B6"/>
<path d="M227.759 178.965L216.292 178.965V178.834C216.292 177.769 216.762 176.747 217.599 175.993C218.436 175.24 219.572 174.817 220.755 174.817L222.85 173.386L226.758 174.817L227.759 174.817L227.759 178.965Z" fill="#2F2E41"/>
<path d="M205.162 104.918C205.162 104.918 201.574 114.837 202.236 116.143C202.898 117.448 204.028 116.431 202.898 117.448C201.769 118.465 200.782 117.384 201.84 119.111C202.898 120.839 204.501 135.057 205.206 135.745C205.911 136.433 206.881 136.452 206.019 137.12C205.158 137.789 204.028 136.433 205.158 137.789C206.288 139.145 209.286 170.428 209.286 170.428H215.143C215.143 170.428 216.602 168.915 215.776 167.93C214.95 166.945 215.849 166.565 215.776 165.907C215.704 165.25 215.978 163.832 216.029 163.184C216.08 162.537 217.07 147.123 214.692 138.218L219.028 121.263L221.196 141.756C221.196 141.756 218.78 158.944 221.196 164.47C221.196 164.47 219.248 165.93 220.112 166.776C220.976 167.623 221.73 166.945 220.976 167.623C220.223 168.301 222.106 170.674 222.106 170.674L228.509 170.335L232.133 138.218C232.133 138.218 232.744 134.869 232.133 134.295C231.522 133.721 231.522 135.755 231.522 133.721V131.009C231.522 131.009 234.252 114.328 234.205 113.346C234.158 112.363 229.639 105.244 229.639 105.244L205.162 104.918Z" fill="#2F2E41"/>
<path d="M224.099 64.8019L214.75 64.2231L211.952 68.1937L205.215 70.6593V90.2186C205.916 92.1124 206.278 94.0944 206.288 96.0906C206.263 99.9874 205.15 104.578 205.535 105.583C209.301 115.414 230.016 105.583 230.016 105.583L229.639 95.0735L230.15 71.3223L225.917 68.2835L224.099 64.8019Z" fill="#F3CD03"/>
<path d="M204.783 109.164L204.138 102.98L200.162 102.819L201.102 109.335C200.861 109.655 200.724 110.03 200.706 110.416C200.688 110.803 200.791 111.186 201.002 111.523C201.213 111.86 201.524 112.137 201.901 112.324C202.277 112.51 202.704 112.598 203.133 112.578C203.562 112.558 203.977 112.431 204.33 112.211C204.683 111.99 204.961 111.686 205.132 111.331C205.304 110.976 205.362 110.586 205.3 110.203C205.238 109.82 205.059 109.46 204.783 109.164Z" fill="#FFB6B6"/>
<path d="M206.739 70.1377L206.628 70.1545C205.603 70.3109 204.636 70.6899 203.81 71.2587C202.984 71.8274 202.325 72.5688 201.889 73.4187C200.75 75.6351 197.053 90.2056 198.674 92.4029C199.931 94.107 199.625 93.7746 199.034 95.0601C198.443 96.3456 197.492 94.9738 198.272 97.014C199.052 99.0542 199.909 98.7631 199.185 99.5514C198.461 100.34 197.718 100.185 198.422 101.505C199.126 102.826 199.012 103.271 199.145 103.768C199.278 104.266 199.162 107.763 199.162 107.763C199.162 107.763 203.409 107.473 205.523 108.382C205.523 108.382 204.344 104.85 205.01 104.285C205.677 103.719 206.477 103.651 205.906 102.828C205.335 102.005 204.04 101.97 205.449 101.559C206.859 101.148 206.405 93.7769 206.405 93.7769C208.726 88.305 207.809 79.3048 206.739 70.1377Z" fill="#F3CD03"/>
<path d="M232.348 109.606L232.645 103.4L236.607 103.059L236.033 109.609C236.292 109.918 236.45 110.286 236.489 110.671C236.528 111.056 236.448 111.444 236.256 111.79C236.064 112.136 235.769 112.427 235.403 112.63C235.037 112.833 234.616 112.941 234.186 112.941C233.757 112.94 233.336 112.832 232.971 112.628C232.605 112.424 232.311 112.132 232.12 111.786C231.929 111.439 231.849 111.052 231.889 110.667C231.929 110.282 232.088 109.914 232.348 109.606Z" fill="#FFB6B6"/>
<path d="M228.206 70.7173L228.317 70.729C229.35 70.8387 230.337 71.1733 231.194 71.7038C232.051 72.2344 232.751 72.9449 233.234 73.7738C234.495 75.9358 238.486 90.5784 237.509 92.5879C236.597 94.4618 236.635 94.001 237.297 95.258C237.959 96.5151 238.833 95.1019 238.168 97.1749C237.504 99.2479 236.631 98.9961 237.399 99.7505C238.166 100.505 238.899 100.317 238.27 101.667C237.641 103.018 237.78 103.458 237.675 103.96C237.57 104.463 237.881 107.95 237.881 107.95C237.881 107.95 233.624 107.853 231.564 108.858C231.564 108.858 232.543 105.277 231.846 104.742C231.148 104.208 230.346 104.176 230.87 103.328C231.394 102.48 232.685 102.387 231.255 102.04C229.824 101.694 229.864 94.3112 229.864 94.3112L228.206 70.7173Z" fill="#F3CD03"/>
<path d="M219.579 64.136C223.607 64.136 226.872 61.1971 226.872 57.5719C226.872 53.9466 223.607 51.0078 219.579 51.0078C215.552 51.0078 212.287 53.9466 212.287 57.5719C212.287 61.1971 215.552 64.136 219.579 64.136Z" fill="#FFB6B6"/>
<path d="M224.654 63.1907C225.668 62.4762 225.767 61.1144 226.632 60.2559C228.079 58.8206 228.759 57.2764 228.001 55.5757C227.331 54.0715 227.473 52.2224 226.029 51.2542C226.738 51.0231 226.905 50.5432 226.279 50.5343C225.857 50.5283 224.284 51.2543 225.041 50.3499C225.798 49.4456 224.365 49.8026 224.46 49.4324C224.555 49.0622 225.163 48.8572 225.431 49.1506C225.204 48.9426 224.928 48.7838 224.623 48.6864C224.319 48.5891 223.993 48.5557 223.672 48.5888C223.35 48.6218 223.042 48.7206 222.769 48.8774C222.497 49.0342 222.267 49.245 222.099 49.4937C221.246 48.3431 220.341 47.5514 219.036 48.2815C217.754 48.9986 217.771 49.8851 216.392 49.6721C215.744 49.5719 215.683 50.6739 215.24 51.1115C215.036 51.3441 214.77 51.5269 214.467 51.6433C214.163 51.7597 213.833 51.8059 213.505 51.7779C212.858 51.668 212.364 50.9433 212.726 50.4492L211.204 53.5761L210.59 52.8986C209.615 53.4706 209.935 54.9632 210.917 55.5263C211.898 56.0893 213.174 55.969 214.304 55.7194C215.665 55.419 217.07 55.3141 218.467 55.4087C220.601 55.68 222.087 57.9766 221.297 59.7815C222.117 59.0568 223.634 59.6582 224.058 60.6193C224.483 61.5805 224.172 62.6633 223.857 63.6581" fill="#2F2E41"/>
</g>
<defs>
<clipPath id="clip0_4886_513">
<rect width="261" height="179" fill="white"/>
</clipPath>
</defs>
</svg>
