<svg width="261" height="179" viewBox="0 0 261 179" fill="none" xmlns="http://www.w3.org/2000/svg">
<g clip-path="url(#clip0_4886_443)">
<path d="M48.5063 104.192H2.42822C1.0893 104.192 0 103.026 0 101.593V22.1311C0 20.6978 1.0893 19.5317 2.42822 19.5317H48.5063C49.8452 19.5317 50.9346 20.6978 50.9346 22.1311V101.593C50.9346 103.026 49.8452 104.192 48.5063 104.192Z" fill="#D3D3D3"/>
<path d="M101.023 104.192H54.9448C53.6059 104.192 52.5166 103.026 52.5166 101.593V22.1311C52.5166 20.6978 53.6059 19.5317 54.9448 19.5317H101.023C102.362 19.5317 103.451 20.6978 103.451 22.1311V101.593C103.451 103.026 102.362 104.192 101.023 104.192Z" fill="#D3D3D3"/>
<path d="M153.54 104.192H107.461C106.123 104.192 105.033 103.026 105.033 101.593V22.1311C105.033 20.6978 106.123 19.5317 107.461 19.5317H153.54C154.878 19.5317 155.968 20.6978 155.968 22.1311V101.593C155.968 103.026 154.878 104.192 153.54 104.192Z" fill="#F3CD03"/>
<path d="M206.055 104.192H159.977C158.638 104.192 157.549 103.026 157.549 101.593V22.1311C157.549 20.6978 158.638 19.5317 159.977 19.5317H206.055C207.394 19.5317 208.483 20.6978 208.483 22.1311V101.593C208.483 103.026 207.394 104.192 206.055 104.192Z" fill="#D3D3D3"/>
<path d="M258.572 104.192H212.494C211.155 104.192 210.065 103.026 210.065 101.593V22.1311C210.065 20.6978 211.155 19.5317 212.494 19.5317H258.572C259.911 19.5317 261 20.6978 261 22.1311V101.593C261 103.026 259.911 104.192 258.572 104.192Z" fill="#D3D3D3"/>
<path d="M166.91 7.54698L171.862 3.42285C171.862 3.42285 177.512 5.30776 177.658 5.38571C177.804 5.46366 186.426 26.8673 186.426 26.8673C186.426 26.8673 164.339 38.9669 165.954 37.7871C167.569 36.6108 167.235 20.6634 165.732 18.5836C164.226 16.5003 165.51 11.2778 165.51 11.2778L166.904 7.54698H166.91Z" fill="#2F2E43"/>
<path d="M180.597 17.1914H173.885V28.593L181.286 25.9888L180.597 17.1914Z" fill="#E7979A"/>
<path d="M174.801 20.3446C178.874 20.3446 182.176 16.8103 182.176 12.4506C182.176 8.09089 178.874 4.55664 174.801 4.55664C170.728 4.55664 167.427 8.09089 167.427 12.4506C167.427 16.8103 170.728 20.3446 174.801 20.3446Z" fill="#E7979A"/>
<path d="M165.616 11.0121L167.423 11.3417C169.111 4.11379 172.931 6.47348 173.295 6.39199C173.659 6.3105 179.091 12.6738 178.651 19.1151C178.21 25.5564 185.989 28.5751 185.989 28.5751C185.989 28.5751 188.706 34.0421 186.283 43.9379C183.861 53.8337 188.998 57.1535 188.998 57.1535C199.126 56.2323 193.036 41.1105 191.421 38.3611C189.805 35.6117 190.907 30.8214 190.907 30.8214C193.403 28.4653 190.467 23.2818 190.467 23.2818C190.467 23.2818 190.984 16.3693 189.441 15.0335C187.899 13.6978 187.826 10.3992 187.826 10.3992C185.108 -2.24601 176.231 0.188074 176.231 0.188074C164.858 -1.14766 165.616 11.0121 165.616 11.0121Z" fill="#2F2E43"/>
<path d="M177.802 160.508H170.44V171.685H177.802V160.508Z" fill="#E69B9E"/>
<path d="M163.272 178.452C162.498 178.452 161.809 178.432 161.29 178.381C159.334 178.189 157.469 176.644 156.531 175.741C156.111 175.335 155.975 174.688 156.194 174.13C156.352 173.73 156.666 173.431 157.056 173.312L162.222 171.732L170.588 165.69L170.681 165.869C170.716 165.936 171.538 167.52 171.813 168.591C171.917 168.998 171.89 169.337 171.731 169.599C171.621 169.781 171.468 169.887 171.343 169.947C171.495 170.117 171.969 170.461 173.431 170.71C175.563 171.073 176.014 168.706 176.032 168.605L176.046 168.526L176.109 168.482C177.125 167.782 177.75 167.465 177.966 167.532C178.1 167.575 178.326 167.647 178.931 174.094C178.992 174.296 179.417 175.78 179.128 177.199C178.814 178.742 172.515 178.211 171.256 178.089C171.22 178.094 166.503 178.452 163.272 178.452Z" fill="#36344E"/>
<path d="M198.76 151.728L192.514 155.898L198.039 165.382L204.286 161.212L198.76 151.728Z" fill="#E69B9E"/>
<path d="M190.465 176.92C189.602 176.92 188.807 176.809 188.242 176.702C187.685 176.596 187.25 176.123 187.16 175.526C187.095 175.097 187.214 174.666 187.486 174.344L191.089 170.076L195.201 160.211L195.368 160.31C195.431 160.347 196.911 161.226 197.674 161.979C197.964 162.265 198.108 162.569 198.103 162.881C198.099 163.098 198.022 163.274 197.946 163.395C198.158 163.454 198.731 163.477 200.095 162.861C202.083 161.962 201.296 159.697 201.261 159.601L201.234 159.526L201.266 159.453C201.782 158.284 202.154 157.659 202.371 157.595C202.507 157.555 202.734 157.49 206.434 162.617C206.586 162.753 207.68 163.772 208.136 165.139C208.632 166.627 203.026 169.744 201.897 170.354C201.862 170.384 195.994 174.949 193.585 176.246C192.629 176.761 191.498 176.92 190.465 176.92Z" fill="#36344E"/>
<path d="M183.222 67.0264H162.613L160.743 87.546L168.925 163.369H179.445L175.237 119.577L192.303 159.115L201.654 152.108L188.329 115.198C188.329 115.198 193.09 83.0417 189.349 75.034C185.609 67.0264 183.222 67.0264 183.222 67.0264Z" fill="#36344E"/>
<path d="M193.472 68.2778H160.743L170.562 22.9844H184.822L193.472 68.2778Z" fill="#F3CD03"/>
<path d="M152.616 22.0918C152.094 19.3363 153.05 16.8195 154.752 16.4706C156.453 16.1216 158.255 18.0724 158.777 20.829C159 21.9271 158.965 23.0654 158.674 24.1486L160.743 35.8533L155.394 36.7582L153.922 25.1234C153.258 24.2358 152.81 23.1963 152.616 22.0918Z" fill="#E69B9E"/>
<path d="M184.473 22.9844H171.896L163.418 41.1344L160.22 27.5345L153.195 28.3331C153.195 28.3331 154.858 54.907 162.125 54.0095C169.391 53.112 186.336 29.1673 184.473 22.9844Z" fill="#F3CD03"/>
<path d="M198.519 92.0086C199.041 94.7642 198.085 97.2809 196.383 97.6299C194.682 97.9789 192.88 96.0281 192.358 93.2715C192.135 92.1733 192.17 91.0351 192.461 89.9519L190.392 78.2472L195.741 77.3423L197.213 88.9771C197.877 89.8646 198.325 90.9042 198.519 92.0086Z" fill="#E69B9E"/>
<path d="M177.305 22.9843C177.305 22.9843 184.452 22.6604 184.822 22.9843C186.771 24.6904 198.214 86.2091 198.214 86.2091H190.967L177.305 22.9843Z" fill="#F3CD03"/>
<path d="M119.845 178.603C119.845 178.823 120.01 179 120.215 179H250.305C250.51 179 250.675 178.823 250.675 178.603C250.675 178.383 250.51 178.206 250.305 178.206H120.215C120.01 178.206 119.845 178.383 119.845 178.603Z" fill="#3F3D58"/>
</g>
<defs>
<clipPath id="clip0_4886_443">
<rect width="261" height="179" fill="white"/>
</clipPath>
</defs>
</svg>
