<svg width="261" height="179" viewBox="0 0 261 179" fill="none" xmlns="http://www.w3.org/2000/svg">
<g clip-path="url(#clip0_4886_658)">
<path d="M17.5647 134.886C16.3253 134.886 15.0834 134.938 13.8706 135.043L13.6941 135.058C5.64947 135.779 -0.234803 139.963 0.00720067 144.79L0.0539855 145.663C0.0848378 146.215 0.11771 146.808 0.144767 147.466C0.159421 147.791 0.596163 148.04 1.1396 148.04H199.018C212.969 147.954 226.87 147.846 240.332 147.719C242.857 147.724 245.38 147.592 247.89 147.322C251.632 146.873 254.228 145.983 255.829 144.601H255.83C257.821 142.887 257.884 140.729 257.763 138.291C257.518 133.367 257.275 128.195 257.032 123.039C256.818 118.495 256.604 113.962 256.391 109.623C256.259 107.048 255.965 104.775 253.704 103.038C251.253 101.159 246.783 100.207 240.418 100.207C240.341 100.207 240.265 100.207 240.187 100.207C220.24 100.279 200.475 107.235 191.006 117.516C189.916 118.7 188.9 119.967 187.917 121.193C186.465 123.004 184.964 124.876 183.172 126.55C182.202 127.469 181.153 128.298 180.038 129.028C179.961 129.082 179.873 129.14 179.78 129.194C179.567 129.335 179.345 129.471 179.128 129.592C177.857 130.336 176.519 130.953 175.131 131.434L174.991 131.482C174.885 131.52 174.771 131.559 174.657 131.593C173.855 131.854 173.022 132.08 172.188 132.263C168.578 133.069 164.474 133.263 159.989 132.837C155.87 132.435 151.805 131.595 147.86 130.33C143.707 128.999 139.819 127.34 136.06 125.735C134.409 125.03 132.701 124.301 130.995 123.61C130.674 123.48 130.359 123.353 130.039 123.226C127.956 122.402 126.067 121.722 124.265 121.147C119.8 119.715 115.179 118.847 110.505 118.562C105.544 118.287 101.172 118.806 97.5142 120.103C96.5057 120.459 95.5237 120.888 94.5758 121.387C90.2429 123.669 87.5717 127.036 84.9888 130.293C81.7757 134.344 78.4531 138.533 71.8924 140.705C64.3219 143.213 53.2716 142.171 45.4535 140.359C42.9955 139.789 40.5406 139.134 38.1663 138.5C37.2074 138.244 36.2478 137.989 35.2875 137.736C33.4005 137.242 31.8562 136.864 30.4274 136.544L29.9755 136.442C29.7241 136.387 29.4725 136.332 29.2164 136.279C27.5193 135.918 25.939 135.633 24.3828 135.41L24.0146 135.355C23.2765 135.256 22.5864 135.174 21.9091 135.105L21.6388 135.078C20.3125 134.95 18.9398 134.886 17.5647 134.886Z" fill="#F2F2F2"/>
<path d="M222.183 140.274C227.751 135.186 236.032 132.627 242.979 135.48C235.853 139.493 230.356 145.932 227.461 153.658C226.355 156.642 225.431 160.078 222.711 161.676C221.019 162.67 218.913 162.718 217.015 162.238C215.117 161.759 213.378 160.797 211.662 159.844L211.174 159.833C213.365 152.564 216.615 145.362 222.183 140.274Z" fill="#E6E6E6"/>
<path d="M242.94 135.635C236.788 136.441 231.042 139.193 226.52 143.5C225.53 144.409 224.687 145.471 224.024 146.647C223.414 147.813 223.123 149.124 223.181 150.443C223.211 151.674 223.382 152.929 223.117 154.146C222.972 154.767 222.699 155.35 222.316 155.856C221.934 156.362 221.45 156.781 220.896 157.085C219.537 157.877 217.978 158.127 216.444 158.318C214.742 158.529 212.971 158.722 211.497 159.69C211.319 159.807 211.149 159.519 211.328 159.402C213.891 157.718 217.136 158.331 219.892 157.206C221.179 156.682 222.317 155.761 222.72 154.368C223.072 153.151 222.896 151.856 222.855 150.61C222.78 149.324 223.016 148.039 223.543 146.867C224.146 145.661 224.946 144.568 225.91 143.634C228.048 141.497 230.504 139.714 233.188 138.351C236.242 136.777 239.54 135.746 242.937 135.3C243.148 135.272 243.149 135.608 242.94 135.635Z" fill="white"/>
<path d="M227.895 142.026C227.285 141.158 227 140.099 227.089 139.038C227.179 137.977 227.637 136.982 228.383 136.232C228.534 136.081 228.773 136.312 228.622 136.464C227.926 137.161 227.499 138.087 227.418 139.076C227.336 140.064 227.606 141.05 228.178 141.854C228.303 142.029 228.018 142.2 227.895 142.026Z" fill="white"/>
<path d="M223.084 149.821C225.198 150.201 227.376 149.759 229.183 148.582C229.362 148.466 229.531 148.754 229.352 148.87C227.47 150.091 225.202 150.546 223.003 150.146C222.793 150.108 222.875 149.783 223.084 149.821Z" fill="white"/>
<path d="M236.269 137.221C236.436 137.606 236.694 137.944 237.022 138.203C237.349 138.462 237.734 138.635 238.144 138.705C238.354 138.741 238.271 139.066 238.063 139.03C237.611 138.95 237.185 138.759 236.823 138.473C236.461 138.188 236.173 137.817 235.985 137.393C235.964 137.354 235.958 137.309 235.969 137.266C235.98 137.224 236.006 137.187 236.042 137.163C236.08 137.14 236.125 137.134 236.167 137.145C236.21 137.156 236.246 137.183 236.269 137.221Z" fill="white"/>
<path d="M250.628 160.018C250.496 160 250.365 159.982 250.231 159.965C248.459 159.727 246.67 159.634 244.883 159.69C244.745 159.692 244.605 159.696 244.467 159.702C240.163 159.881 235.929 160.87 231.981 162.617C230.41 163.313 228.894 164.13 227.446 165.06C225.446 166.344 223.378 167.898 221.142 168.422C220.909 168.479 220.673 168.522 220.435 168.549L211.197 160.438C211.186 160.409 211.172 160.381 211.16 160.352L210.776 160.045C210.848 159.992 210.923 159.939 210.994 159.885C211.036 159.854 211.079 159.825 211.12 159.794C211.148 159.774 211.177 159.754 211.201 159.734C211.21 159.727 211.22 159.721 211.227 159.716C211.252 159.696 211.276 159.68 211.299 159.663C211.718 159.361 212.14 159.063 212.565 158.767C212.567 158.764 212.567 158.764 212.571 158.764C215.788 156.475 219.262 154.582 222.919 153.123C223.029 153.081 223.14 153.037 223.254 152.998C224.901 152.377 226.596 151.894 228.32 151.553C229.265 151.369 230.219 151.234 231.177 151.148C233.654 150.931 236.149 151.11 238.571 151.679C243.399 152.815 247.816 155.503 250.431 159.696C250.498 159.803 250.563 159.909 250.628 160.018Z" fill="#E6E6E6"/>
<path d="M250.507 160.119C245.115 157.007 238.894 155.696 232.726 156.373C231.396 156.495 230.093 156.828 228.865 157.362C227.686 157.92 226.675 158.789 225.939 159.878C225.232 160.879 224.623 161.986 223.689 162.796C223.205 163.203 222.641 163.502 222.035 163.672C221.428 163.843 220.794 163.882 220.172 163.786C218.615 163.589 217.222 162.836 215.885 162.052C214.4 161.182 212.871 160.254 211.12 160.127C210.908 160.112 210.944 159.779 211.155 159.794C214.203 160.015 216.429 162.485 219.298 163.27C220.636 163.637 222.092 163.596 223.24 162.731C224.244 161.974 224.873 160.833 225.58 159.813C226.283 158.74 227.234 157.858 228.351 157.244C229.548 156.649 230.836 156.265 232.16 156.108C235.136 155.707 238.155 155.783 241.107 156.333C244.48 156.942 247.726 158.131 250.703 159.85C250.887 159.957 250.69 160.225 250.507 160.119Z" fill="white"/>
<path d="M234.699 156.036C234.728 154.971 235.129 153.951 235.83 153.158C236.532 152.366 237.488 151.851 238.529 151.708C238.74 151.679 238.793 152.01 238.582 152.039C237.613 152.17 236.722 152.649 236.07 153.389C235.418 154.129 235.048 155.08 235.028 156.072C235.023 156.288 234.695 156.25 234.699 156.036Z" fill="white"/>
<path d="M226.231 159.323C227.693 160.917 229.695 161.894 231.836 162.058C232.048 162.074 232.012 162.407 231.8 162.391C229.572 162.216 227.492 161.195 225.973 159.533C225.829 159.374 226.087 159.165 226.231 159.323Z" fill="white"/>
<path d="M244.238 157.312C244.142 157.722 244.149 158.149 244.256 158.556C244.363 158.962 244.569 159.336 244.854 159.642C245 159.799 244.742 160.008 244.596 159.852C244.283 159.512 244.057 159.1 243.937 158.651C243.817 158.201 243.808 157.73 243.91 157.276C243.916 157.232 243.938 157.193 243.972 157.165C244.006 157.138 244.048 157.124 244.092 157.127C244.135 157.132 244.175 157.155 244.202 157.189C244.23 157.224 244.243 157.268 244.238 157.312Z" fill="white"/>
<path d="M76.4263 145.335C80.9855 138.322 89.1413 133.249 97.3539 134.34C90.8331 140.642 86.7203 149.08 85.7434 158.161C85.3791 161.664 85.3337 165.599 82.8626 168.075C81.3251 169.616 79.0862 170.262 76.9249 170.284C74.7635 170.306 72.639 169.768 70.5427 169.234L70.0176 169.359C70.3675 160.967 71.8671 152.348 76.4263 145.335Z" fill="#E6E6E6"/>
<path d="M97.3539 134.517C90.9947 137.115 85.6044 141.679 81.9487 147.561C81.1395 148.813 80.53 150.186 80.1427 151.631C79.8101 153.051 79.8585 154.534 80.2828 155.929C80.6526 157.237 81.1802 158.531 81.2301 159.907C81.2453 160.612 81.1134 161.313 80.843 161.962C80.5727 162.612 80.17 163.196 79.6613 163.677C78.4247 164.908 76.8255 165.615 75.238 166.251C73.4754 166.958 71.6335 167.664 70.3231 169.115C70.1643 169.291 69.9046 169.031 70.0631 168.855C72.343 166.33 75.9808 166.07 78.6208 164.09C79.8526 163.166 80.8173 161.86 80.8663 160.257C80.909 158.855 80.366 157.52 79.9803 156.199C79.5468 154.845 79.4467 153.404 79.6889 152.002C80.0025 150.542 80.5588 149.147 81.334 147.876C83.0341 144.988 85.1716 142.388 87.668 140.173C90.5034 137.628 93.7471 135.594 97.2587 134.159C97.4761 134.07 97.5699 134.428 97.3539 134.517Z" fill="white"/>
<path d="M83.0158 145.597C82.126 144.841 81.5301 143.789 81.3346 142.628C81.1391 141.468 81.3567 140.275 81.9485 139.262C82.0689 139.057 82.3879 139.238 82.2673 139.442C81.7145 140.384 81.5119 141.496 81.6962 142.576C81.8804 143.656 82.4393 144.634 83.272 145.333C83.4528 145.485 83.1956 145.748 83.0158 145.597Z" fill="white"/>
<path d="M80.0092 155.291C82.3747 155.1 84.5826 154.013 86.1927 152.245C86.3521 152.07 86.6119 152.33 86.4527 152.505C84.7739 154.341 82.4739 155.468 80.0118 155.661C79.7772 155.679 79.7758 155.309 80.0092 155.291Z" fill="white"/>
<path d="M90.6539 138.095C90.9381 138.46 91.3073 138.748 91.7284 138.933C92.1494 139.118 92.6092 139.194 93.0663 139.154C93.3006 139.132 93.3018 139.503 93.069 139.524C92.5637 139.566 92.0561 139.481 91.5905 139.278C91.1248 139.075 90.7153 138.759 90.3977 138.359C90.3647 138.323 90.3461 138.277 90.3457 138.228C90.3454 138.179 90.3633 138.133 90.3958 138.097C90.4299 138.062 90.4762 138.042 90.5245 138.042C90.5728 138.042 90.6193 138.061 90.6539 138.095Z" fill="white"/>
<path d="M112.267 158.427C112.121 158.444 111.975 158.462 111.827 158.482C109.866 158.727 107.928 159.133 106.032 159.696C105.885 159.737 105.736 159.781 105.59 159.826C101.036 161.233 96.7789 163.484 93.0352 166.467C91.5466 167.655 90.1493 168.956 88.8553 170.359C87.0684 172.297 85.283 174.542 83.0354 175.733C82.8023 175.86 82.5617 175.972 82.3149 176.069L70.2093 170C70.1886 169.972 70.1665 169.947 70.1456 169.919L69.6514 169.699C69.7131 169.622 69.7788 169.543 69.8405 169.466C69.8762 169.421 69.9145 169.378 69.9501 169.333C69.9748 169.303 69.9995 169.274 70.0201 169.246C70.0282 169.236 70.0365 169.226 70.0433 169.219C70.0639 169.191 70.0859 169.167 70.1051 169.142C70.471 168.702 70.8406 168.263 71.2139 167.826C71.2153 167.823 71.2153 167.824 71.2194 167.822C74.0722 164.502 77.2234 161.393 80.7396 158.869C80.8454 158.793 80.9524 158.714 81.0638 158.641C82.655 157.512 84.3344 156.517 86.0855 155.666C87.0458 155.203 88.0286 154.789 89.0301 154.427C91.6196 153.496 94.3375 152.984 97.084 152.909C102.559 152.761 108.02 154.391 111.968 158.137C112.069 158.233 112.167 158.328 112.267 158.427Z" fill="#E6E6E6"/>
<path d="M112.163 158.569C105.543 156.76 98.5297 157.113 92.1189 159.578C90.7295 160.083 89.4273 160.808 88.2604 161.725C87.1522 162.655 86.3098 163.869 85.8209 165.242C85.3396 166.512 84.9924 167.868 84.2151 168.997C83.8087 169.569 83.2877 170.048 82.6862 170.401C82.0847 170.755 81.4162 170.975 80.7247 171.049C79.0064 171.277 77.3098 170.865 75.6644 170.404C73.8375 169.892 71.948 169.33 70.0401 169.689C69.8089 169.733 69.7559 169.366 69.9867 169.323C73.3062 168.699 76.365 170.713 79.6485 170.743C81.1807 170.758 82.7264 170.304 83.717 169.054C84.5833 167.961 84.9425 166.563 85.4188 165.273C85.8765 163.927 86.6521 162.716 87.6779 161.744C88.795 160.77 90.0674 159.996 91.4407 159.454C94.5132 158.186 97.7632 157.415 101.072 157.171C104.846 156.87 108.644 157.227 112.3 158.225C112.526 158.287 112.388 158.63 112.163 158.569Z" fill="white"/>
<path d="M94.1367 158.661C93.875 157.514 94.0239 156.31 94.5567 155.264C95.0895 154.219 95.9716 153.399 97.0454 152.952C97.2629 152.862 97.4107 153.2 97.1928 153.29C96.1921 153.705 95.3706 154.469 94.8764 155.444C94.3822 156.419 94.2479 157.541 94.4979 158.607C94.5519 158.839 94.1904 158.892 94.1367 158.661Z" fill="white"/>
<path d="M85.9812 164.565C87.9829 165.858 90.3914 166.337 92.7264 165.909C92.9578 165.866 93.0108 166.233 92.7798 166.275C90.349 166.717 87.8437 166.212 85.7636 164.862C85.5654 164.734 85.7841 164.437 85.9812 164.565Z" fill="white"/>
<path d="M104.69 157.335C104.7 157.8 104.823 158.255 105.05 158.66C105.276 159.064 105.598 159.406 105.987 159.653C106.187 159.779 105.968 160.076 105.769 159.95C105.341 159.675 104.986 159.298 104.735 158.851C104.484 158.405 104.344 157.903 104.328 157.389C104.323 157.34 104.336 157.292 104.364 157.253C104.393 157.214 104.435 157.187 104.482 157.179C104.53 157.172 104.579 157.184 104.618 157.213C104.656 157.243 104.682 157.286 104.69 157.335Z" fill="white"/>
<path d="M108.874 92.7568C109.176 92.4516 109.409 92.0828 109.556 91.6764C109.703 91.2701 109.76 90.836 109.723 90.4048C109.687 89.9736 109.557 89.5558 109.344 89.1808C109.131 88.8058 108.84 88.4827 108.49 88.2343L113.255 64.8481L108.115 66.4928L104.281 89.1171C103.908 89.7401 103.774 90.48 103.903 91.1967C104.033 91.9134 104.417 92.5571 104.983 93.0057C105.549 93.4544 106.258 93.6768 106.975 93.6309C107.692 93.5851 108.368 93.2741 108.874 92.7568Z" fill="#FFB6B6"/>
<path d="M119.888 30.2444L116.703 27.8067C116.703 27.8067 113.894 27.605 113.397 32.7425C112.899 37.88 109.784 57.5977 109.784 57.5977L104.911 80.4853L111.656 81.9868L116.876 57.287L122.1 40.2466L119.888 30.2444Z" fill="#F3CD03"/>
<path d="M117.461 72.595L102.186 60.55C101.948 60.362 101.793 60.0859 101.756 59.7823C101.718 59.4788 101.801 59.1726 101.986 58.9309L112.379 45.3757C112.565 45.1344 112.837 44.9776 113.136 44.9396C113.435 44.9016 113.737 44.9856 113.976 45.1731L129.251 57.2181C129.489 57.4061 129.643 57.6822 129.681 57.9857C129.718 58.2893 129.636 58.5955 129.451 58.8372L119.058 72.3924C118.872 72.6337 118.6 72.7905 118.301 72.8285C118.001 72.8664 117.699 72.7825 117.461 72.595Z" fill="#3F3D56"/>
<path d="M117.378 71.3484L103.398 60.3253C103.187 60.1583 103.05 59.9132 103.017 59.6437C102.983 59.3741 103.057 59.1023 103.221 58.8876L112.643 46.5993C112.807 46.385 113.049 46.2458 113.315 46.212C113.581 46.1783 113.849 46.2529 114.06 46.4193L128.04 57.4425C128.251 57.6095 128.388 57.8546 128.422 58.1241C128.455 58.3937 128.381 58.6655 128.217 58.8801L118.795 71.1685C118.631 71.3828 118.389 71.522 118.123 71.5557C117.858 71.5895 117.589 71.5149 117.378 71.3484Z" fill="white"/>
<path d="M105.231 60.0129C105.178 59.9711 105.144 59.9099 105.136 59.8425C105.127 59.7751 105.146 59.7071 105.187 59.6535L109.94 53.4544C109.981 53.4007 110.041 53.3659 110.108 53.3575C110.141 53.3533 110.174 53.3557 110.206 53.3646C110.238 53.3735 110.268 53.3888 110.294 53.4094C110.32 53.43 110.342 53.4557 110.359 53.4849C110.375 53.5142 110.386 53.5464 110.39 53.5798C110.394 53.6131 110.392 53.647 110.383 53.6794C110.374 53.7119 110.359 53.7422 110.339 53.7688L105.586 59.9679C105.544 60.0215 105.484 60.0563 105.418 60.0647C105.351 60.0731 105.284 60.0545 105.231 60.0129Z" fill="#E4E4E4"/>
<path d="M106.018 60.634C105.965 60.5923 105.931 60.531 105.923 60.4636C105.915 60.3962 105.933 60.3282 105.974 60.2746L110.727 54.0755C110.768 54.0218 110.829 53.987 110.895 53.9785C110.961 53.9701 111.028 53.9888 111.081 54.0305C111.134 54.0722 111.169 54.1335 111.177 54.2009C111.185 54.2683 111.167 54.3363 111.126 54.3899L106.373 60.589C106.332 60.6426 106.271 60.6774 106.205 60.6858C106.138 60.6943 106.071 60.6756 106.018 60.634Z" fill="#E4E4E4"/>
<path d="M109.499 57.743C109.446 57.7012 109.412 57.64 109.403 57.5726C109.395 57.5052 109.413 57.4372 109.454 57.3836L111.515 54.6964C111.535 54.6698 111.56 54.6475 111.589 54.6308C111.618 54.6141 111.65 54.6034 111.683 54.5992C111.716 54.595 111.749 54.5974 111.781 54.6063C111.813 54.6152 111.843 54.6304 111.869 54.6511C111.896 54.6718 111.918 54.6975 111.934 54.7267C111.95 54.756 111.961 54.7883 111.965 54.8217C111.969 54.8551 111.967 54.889 111.958 54.9215C111.949 54.9539 111.934 54.9843 111.913 55.0108L109.853 57.698C109.812 57.7516 109.752 57.7864 109.685 57.7948C109.619 57.8032 109.552 57.7846 109.499 57.743Z" fill="#E4E4E4"/>
<path d="M110.561 63.0163C110.508 62.9745 110.474 62.9132 110.466 62.8459C110.458 62.7785 110.476 62.7105 110.517 62.6569L118.02 52.8704C118.041 52.8438 118.066 52.8216 118.095 52.805C118.124 52.7883 118.156 52.7776 118.188 52.7735C118.221 52.7693 118.255 52.7717 118.287 52.7806C118.319 52.7896 118.349 52.8048 118.375 52.8254C118.401 52.846 118.423 52.8717 118.439 52.901C118.456 52.9302 118.466 52.9624 118.47 52.9958C118.475 53.0291 118.472 53.063 118.463 53.0954C118.455 53.1279 118.44 53.1582 118.419 53.1848L110.916 62.9713C110.874 63.0248 110.814 63.0597 110.748 63.0681C110.681 63.0765 110.614 63.0579 110.561 63.0163Z" fill="#E4E4E4"/>
<path d="M111.349 63.6374C111.297 63.5956 111.262 63.5344 111.254 63.467C111.246 63.3996 111.264 63.3316 111.305 63.278L118.809 53.4915C118.829 53.4649 118.854 53.4427 118.883 53.4261C118.912 53.4094 118.944 53.3987 118.977 53.3946C119.009 53.3904 119.043 53.3928 119.075 53.4017C119.107 53.4106 119.137 53.4259 119.163 53.4465C119.189 53.4671 119.211 53.4928 119.227 53.5221C119.244 53.5513 119.254 53.5835 119.259 53.6169C119.263 53.6503 119.26 53.6841 119.251 53.7166C119.243 53.749 119.228 53.7793 119.207 53.8059L111.704 63.5924C111.663 63.646 111.602 63.6808 111.536 63.6892C111.469 63.6976 111.402 63.679 111.349 63.6374Z" fill="#E4E4E4"/>
<path d="M113.137 65.0475C113.085 65.0058 113.05 64.9445 113.042 64.8771C113.034 64.8097 113.052 64.7418 113.093 64.6881L120.597 54.9016C120.617 54.8751 120.642 54.8529 120.671 54.8362C120.7 54.8196 120.732 54.8089 120.765 54.8047C120.798 54.8005 120.831 54.803 120.863 54.8119C120.895 54.8208 120.925 54.836 120.951 54.8567C120.977 54.8773 120.999 54.903 121.015 54.9322C121.032 54.9614 121.042 54.9937 121.047 55.027C121.051 55.0604 121.048 55.0943 121.039 55.1267C121.031 55.1591 121.016 55.1895 120.995 55.216L113.492 65.0025C113.451 65.0561 113.39 65.0909 113.324 65.0993C113.257 65.1078 113.19 65.0891 113.137 65.0475Z" fill="#E4E4E4"/>
<path d="M113.925 65.6686C113.872 65.6269 113.837 65.5656 113.829 65.4982C113.821 65.4309 113.839 65.3629 113.88 65.3092L121.384 55.5227C121.404 55.4962 121.429 55.474 121.458 55.4573C121.487 55.4407 121.519 55.43 121.552 55.4258C121.585 55.4216 121.618 55.4241 121.65 55.433C121.682 55.4419 121.712 55.4571 121.738 55.4778C121.764 55.4984 121.786 55.5241 121.803 55.5533C121.819 55.5825 121.83 55.6148 121.834 55.6481C121.838 55.6815 121.835 55.7154 121.827 55.7478C121.818 55.7802 121.803 55.8106 121.782 55.8372L114.279 65.6236C114.238 65.6772 114.177 65.712 114.111 65.7205C114.044 65.7289 113.977 65.7103 113.925 65.6686Z" fill="#E4E4E4"/>
<path d="M115.714 67.0788C115.661 67.037 115.626 66.9757 115.618 66.9084C115.61 66.841 115.628 66.773 115.669 66.7194L123.173 56.9329C123.193 56.9063 123.218 56.8841 123.247 56.8675C123.276 56.8509 123.308 56.8401 123.341 56.836C123.374 56.8318 123.407 56.8342 123.439 56.8431C123.471 56.8521 123.501 56.8673 123.527 56.8879C123.553 56.9086 123.575 56.9342 123.592 56.9635C123.608 56.9927 123.619 57.0249 123.623 57.0583C123.627 57.0917 123.624 57.1255 123.616 57.158C123.607 57.1904 123.592 57.2207 123.572 57.2473L116.068 67.0338C116.027 67.0873 115.966 67.1222 115.9 67.1306C115.834 67.139 115.767 67.1204 115.714 67.0788Z" fill="#E4E4E4"/>
<path d="M116.501 67.7002C116.448 67.6584 116.414 67.5972 116.405 67.5298C116.397 67.4624 116.415 67.3944 116.456 67.3408L123.96 57.5543C124.001 57.5009 124.062 57.4663 124.128 57.458C124.194 57.4497 124.261 57.4684 124.314 57.51C124.367 57.5516 124.401 57.6127 124.409 57.68C124.418 57.7472 124.4 57.8151 124.359 57.8687L116.855 67.6552C116.814 67.7088 116.754 67.7436 116.687 67.752C116.621 67.7604 116.554 67.7418 116.501 67.7002Z" fill="#E4E4E4"/>
<path d="M103.96 79.0653C104.017 79.0653 104.064 79.0182 104.064 78.9601C104.064 78.9021 104.017 78.855 103.96 78.855C103.903 78.855 103.856 78.9021 103.856 78.9601C103.856 79.0182 103.903 79.0653 103.96 79.0653Z" fill="white"/>
<path d="M119.069 6.61075C118.704 8.59787 118.106 10.5336 117.287 12.3765C112.6 22.4328 125.949 19.1549 130.719 19.1549C135.935 19.1549 140.926 21.9364 140.163 9.57747C139.838 4.29829 135.935 0 130.719 0C126.264 0 120 2.00821 119.069 6.61075Z" fill="#2F2E41"/>
<path d="M135.581 154.101H131.137L129.022 136.718H135.581V154.101Z" fill="#FFB6B6"/>
<path d="M137.927 161.909H134.741L134.172 158.857L132.715 161.909H124.262C123.857 161.909 123.463 161.777 123.136 161.534C122.81 161.29 122.569 160.948 122.448 160.555C122.328 160.163 122.334 159.742 122.466 159.354C122.598 158.965 122.849 158.63 123.183 158.396L129.933 153.669V150.584L137.032 151.014L137.927 161.909Z" fill="#2F2E41"/>
<path d="M161.982 148.413L158.416 151.102L146.491 138.433L151.754 134.464L161.982 148.413Z" fill="#FFB6B6"/>
<path d="M168.459 153.26L165.902 155.188L163.65 153.084L164.276 156.414L157.494 161.529C157.169 161.774 156.775 161.907 156.37 161.91C155.965 161.912 155.569 161.782 155.242 161.541C154.914 161.299 154.671 160.957 154.549 160.565C154.426 160.174 154.431 159.753 154.561 159.364L157.195 151.485L155.38 149.01L161.33 145.059L168.459 153.26Z" fill="#2F2E41"/>
<path d="M121.027 74.0993L142.122 70.7673L137.927 57.9688H121.027V74.0993Z" fill="#FFB6B6"/>
<path d="M140.755 64.4146C140.755 64.4146 149.187 71.802 145.296 92.8616L140.547 113.497L153.487 136.279L146.907 139.919L130.961 117.443L123.664 100.085L119.805 69.664L140.755 64.4146Z" fill="#2F2E41"/>
<path d="M127.687 105.032L127.18 112.997L128.664 136.582L136.035 139.156L137.43 114.99L127.687 105.032Z" fill="#2F2E41"/>
<path d="M125.421 21.8057L133.575 22.1283L136.825 27.599L144.239 29.0669L139.813 51.7756L140.627 64.7011L133.244 64.6555C127.923 64.6226 122.778 66.5829 118.795 70.1605L119.015 53.3821L115.84 40.8573L116.554 27.7242L122.518 26.9681L125.421 21.8057Z" fill="#F3CD03"/>
<path d="M129.938 19.1525C134.176 19.1525 137.612 15.668 137.612 11.3697C137.612 7.07138 134.176 3.58691 129.938 3.58691C125.7 3.58691 122.264 7.07138 122.264 11.3697C122.264 15.668 125.7 19.1525 129.938 19.1525Z" fill="#FFB6B6"/>
<path d="M124.726 3.43629C126.071 2.60488 127.612 2.15513 129.186 2.13408C130.761 2.11302 132.313 2.52143 133.679 3.3166C135.045 4.11177 136.175 5.26449 136.951 6.65424C137.727 8.04399 138.121 9.61972 138.091 11.2167C134.181 12.2123 130.073 12.9743 125.903 11.4548L124.918 9.01046L124.337 11.4566C123.067 11.9831 121.794 12.4285 120.521 11.4515C120.469 9.8591 120.83 8.28071 121.568 6.87415C122.306 5.46759 123.395 4.28214 124.726 3.43629Z" fill="#2F2E41"/>
<path d="M142.82 80.3923L143.855 89.9135C143.927 90.1511 144.072 90.359 144.269 90.5066C144.466 90.6543 144.705 90.734 144.95 90.734H149.719C149.964 90.734 150.203 90.6543 150.4 90.5067C150.597 90.359 150.742 90.1511 150.814 89.9135L151.671 82.6159C151.918 82.7389 152.191 82.8006 152.466 82.7959C152.742 82.7912 153.012 82.7203 153.255 82.589C153.498 82.4577 153.707 82.2698 153.865 82.0406C154.022 81.8114 154.124 81.5476 154.162 81.2709C154.199 80.9941 154.171 80.7123 154.08 80.4486C153.989 80.1849 153.838 79.9469 153.639 79.7541C153.439 79.5613 153.198 79.4192 152.934 79.3395C152.67 79.2598 152.391 79.2449 152.12 79.2958C152.013 79.1677 151.88 79.0649 151.73 78.9945C151.579 78.9241 151.416 78.8878 151.25 78.8882H143.916C143.736 78.8882 143.559 78.9309 143.399 79.0128C143.239 79.0948 143.1 79.2137 142.994 79.36C142.887 79.5063 142.816 79.6759 142.786 79.8552C142.756 80.0345 142.767 80.2184 142.82 80.3923ZM151.821 82.1224L152.346 80.3923C152.406 80.1926 152.412 79.9799 152.363 79.7771C152.385 79.7759 152.407 79.7703 152.429 79.7703C152.759 79.7703 153.075 79.9031 153.308 80.1394C153.541 80.3757 153.672 80.6963 153.672 81.0305C153.672 81.3647 153.541 81.6853 153.308 81.9216C153.075 82.1579 152.759 82.2907 152.429 82.2907C152.215 82.2893 152.006 82.2313 151.821 82.1224Z" fill="#F3CD03"/>
<path d="M150.01 90.7404C149.709 90.4337 149.478 90.0637 149.334 89.6566C149.189 89.2494 149.134 88.8151 149.173 88.3841C149.211 87.9531 149.343 87.536 149.558 87.1621C149.772 86.7882 150.065 86.4666 150.416 86.22L145.769 62.8096L150.901 64.4807L154.621 87.1244C154.991 87.7493 155.121 88.49 154.988 89.206C154.855 89.922 154.468 90.5636 153.899 91.0094C153.331 91.4551 152.621 91.6739 151.904 91.6243C151.188 91.5748 150.514 91.2603 150.01 90.7404Z" fill="#FFB6B6"/>
<path d="M141.055 31.5047L144.239 29.067C144.239 29.067 147.049 28.8652 147.546 34.0028C148.044 39.1403 151.159 58.858 151.159 58.858L156.032 81.7456L149.286 83.247L144.067 58.5473L138.843 41.5069L141.055 31.5047Z" fill="#F3CD03"/>
<path d="M113.571 52.8153C114.567 52.8153 115.374 51.9968 115.374 50.9872C115.374 49.9776 114.567 49.1592 113.571 49.1592C112.576 49.1592 111.769 49.9776 111.769 50.9872C111.769 51.9968 112.576 52.8153 113.571 52.8153Z" fill="#F3CD03"/>
<path d="M56.0895 175.307L59.8461 175.307L61.6334 160.612L56.0889 160.613L56.0895 175.307Z" fill="#FFB6B6"/>
<path d="M55.1309 174.063L56.1882 174.063L60.3164 172.361L62.529 174.063C63.7794 174.063 64.9788 174.567 65.863 175.464C66.7472 176.36 67.2439 177.576 67.244 178.844V179L55.1311 179L55.1309 174.063Z" fill="#2F2E41"/>
<path d="M70.6475 172.906L74.312 173.745L79.247 159.811L73.8386 158.573L70.6475 172.906Z" fill="#FFB6B6"/>
<path d="M69.9822 171.479L71.0137 171.715L75.4103 170.977L77.1987 173.131L77.199 173.131C78.4187 173.411 79.479 174.17 80.1466 175.242C80.8143 176.314 81.0347 177.611 80.7594 178.848L80.7256 179L68.9102 176.294L69.9822 171.479Z" fill="#2F2E41"/>
<path d="M49.2119 99.7208L52.6089 138.318C52.6089 138.318 51.3361 161.49 55.4433 169.644H61.3998L64.349 136.202L64.7194 113.755L77.4896 132.693L69.3558 169.098L76.6869 169.762L89.8858 130.255L75.3852 93.166L49.2119 99.7208Z" fill="#2F2E41"/>
<path d="M52.7705 38.2552C57.6089 38.2552 61.5312 34.2775 61.5312 29.3708C61.5312 24.464 57.6089 20.4863 52.7705 20.4863C47.9321 20.4863 44.0098 24.464 44.0098 29.3708C44.0098 34.2775 47.9321 38.2552 52.7705 38.2552Z" fill="#FFB8B8"/>
<path d="M68.1705 46.7219L60.9833 43.5945L57.4845 39.8311L48.7441 41.2606L46.425 45.293L38.918 52.372L47.7134 92.7024L47.4471 101.511C47.4471 101.511 53.0764 104.081 77.4897 98.1637C77.7824 98.0927 77.1696 97.782 77.1696 97.782L68.1705 46.7219Z" fill="#3F3D56"/>
<path d="M43.6603 34.4118C43.5993 34.3273 43.5388 34.2422 43.479 34.1562C43.4549 34.2078 43.4357 34.2611 43.4082 34.3115L43.6603 34.4118Z" fill="#2F2E41"/>
<path d="M61.4849 22.8722C60.8993 21.5784 59.8552 20.5555 58.5601 20.0066C57.2763 19.4815 55.8416 19.4828 54.5588 20.0102C53.4006 19.2681 52.1138 18.6798 50.7585 18.6069C49.4033 18.5341 47.9704 19.0439 47.1352 20.1663C46.9487 20.4626 46.7369 20.7417 46.5022 21.0003C45.8309 21.6308 44.8106 21.5399 43.9183 21.411C44.3185 21.7588 44.7189 22.1067 45.1193 22.4546C44.6348 22.5829 44.1503 22.7113 43.6657 22.8396C44.2311 23.1874 44.7965 23.5351 45.3618 23.8829C43.7205 24.8819 42.9745 27.0625 43.1716 29.0429C43.358 30.9179 44.2506 32.6325 45.3177 34.1564C45.7433 33.2455 45.6516 32.1555 45.6446 31.1295C45.6373 30.0454 45.8264 28.8144 46.6829 28.2086C47.2608 27.7999 48.0038 27.7816 48.7005 27.7855C52.2152 27.8051 55.7259 28.0273 59.2157 28.4512C59.6892 28.472 60.1509 28.6078 60.5619 28.8472C61.3337 29.3811 61.484 30.483 61.5615 31.4496C61.9693 29.8535 62.1688 28.2101 62.1551 26.5614C62.1894 25.2976 61.9611 24.0406 61.4849 22.8722Z" fill="#2F2E41"/>
<path d="M64.2126 126.778C71.8279 126.778 78.0014 120.517 78.0014 112.795C78.0014 105.072 71.8279 98.811 64.2126 98.811C56.5973 98.811 50.4238 105.072 50.4238 112.795C50.4238 120.517 56.5973 126.778 64.2126 126.778Z" fill="white"/>
<path d="M64.2124 98.5C63.5036 98.5001 62.7958 98.5541 62.095 98.6616C61.7365 98.7144 61.3873 98.7828 61.0409 98.8667C58.4971 99.4613 56.1663 100.761 54.3085 102.621C52.4506 104.481 51.1388 106.827 50.5195 109.399C49.9001 111.971 49.9975 114.667 50.8008 117.185C51.6042 119.704 53.0818 121.947 55.0689 123.664C55.3049 123.866 55.5438 124.062 55.792 124.248C57.5809 125.601 59.661 126.503 61.861 126.882C64.061 127.26 66.3181 127.102 68.4465 126.423C70.5749 125.744 72.5138 124.561 74.1036 122.974C75.6935 121.386 76.8888 119.438 77.5912 117.29C78.2936 115.142 78.483 112.856 78.1439 110.619C77.8047 108.382 76.9467 106.26 75.6404 104.425C74.3341 102.59 72.6169 101.097 70.6301 100.066C68.6434 99.0364 66.4438 98.4995 64.2124 98.5ZM64.2124 126.467C61.3456 126.47 58.5533 125.541 56.2455 123.816C55.9943 123.63 55.7523 123.437 55.5163 123.232C53.5803 121.576 52.1438 119.4 51.3716 116.954C50.5993 114.507 50.5226 111.89 51.1503 109.401C51.7779 106.913 53.0844 104.654 54.92 102.884C56.7556 101.114 59.0459 99.9051 61.5283 99.395C61.8713 99.3235 62.2145 99.2675 62.5639 99.224C63.1108 99.1554 63.6613 99.1211 64.2124 99.1215C67.7881 99.1215 71.2174 100.562 73.7459 103.126C76.2743 105.69 77.6948 109.168 77.6948 112.794C77.6948 116.421 76.2743 119.898 73.7459 122.462C71.2174 125.027 67.7881 126.467 64.2124 126.467Z" fill="#3F3D56"/>
<path d="M57.4494 109.998H70.9758C71.4713 109.998 71.873 109.59 71.873 109.088V109.043C71.873 108.54 71.4713 108.133 70.9758 108.133H57.4494C56.9539 108.133 56.5522 108.54 56.5522 109.043V109.088C56.5522 109.59 56.9539 109.998 57.4494 109.998Z" fill="#F3CD03"/>
<path d="M57.4494 113.727H70.9758C71.4713 113.727 71.873 113.319 71.873 112.817V112.772C71.873 112.269 71.4713 111.862 70.9758 111.862H57.4494C56.9539 111.862 56.5522 112.269 56.5522 112.772V112.817C56.5522 113.319 56.9539 113.727 57.4494 113.727Z" fill="#F3CD03"/>
<path d="M57.4494 117.456H70.9758C71.4713 117.456 71.873 117.048 71.873 116.546V116.501C71.873 115.998 71.4713 115.591 70.9758 115.591H57.4494C56.9539 115.591 56.5522 115.998 56.5522 116.501V116.546C56.5522 117.048 56.9539 117.456 57.4494 117.456Z" fill="#F3CD03"/>
<path d="M218.478 174.833L214.539 174.832L212.665 159.424L218.479 159.425L218.478 174.833Z" fill="#FFB6B6"/>
<path d="M199.843 174.833L195.904 174.832L194.03 159.424L199.844 159.425L199.843 174.833Z" fill="#FFB6B6"/>
<path d="M199.982 179L187.869 179V178.844C187.869 177.576 188.366 176.36 189.25 175.464C190.134 174.567 191.333 174.063 192.584 174.063H192.584L194.797 172.361L198.925 174.063L199.982 174.063L199.982 179Z" fill="#2F2E41"/>
<path d="M219.123 179L207.01 179V178.844C207.01 177.576 207.507 176.36 208.391 175.464C209.275 174.567 210.474 174.063 211.724 174.063H211.725L213.937 172.361L218.066 174.063L219.123 174.063L219.123 179Z" fill="#2F2E41"/>
<path d="M195.979 83.6429L189.993 120.61L191.622 126.119L189.484 130.02L192.624 164.284L191.349 167.129L194.91 169.356H202.155L202.54 138.337L204.33 133.783V131.273L207.973 112.358L208.644 138.847L209.704 143.408L208.813 146.656L209.977 148.931L213.066 170.032H221.191L220.562 165.123C221.27 164.759 221.839 164.168 222.179 163.441C222.519 162.714 222.611 161.894 222.441 161.108L221.975 158.956L223.035 152.594L224.966 117.101L224.421 88.463L214.917 81.0928L195.979 83.6429Z" fill="#2F2E41"/>
<path d="M209.703 36.1725C213.872 36.1725 217.252 32.7453 217.252 28.5176C217.252 24.29 213.872 20.8628 209.703 20.8628C205.535 20.8628 202.155 24.29 202.155 28.5176C202.155 32.7453 205.535 36.1725 209.703 36.1725Z" fill="#FFB6B6"/>
<path d="M193.211 98.3126C193.54 97.9684 193.79 97.5553 193.944 97.1025C194.098 96.6497 194.152 96.1681 194.103 95.6917C194.054 95.2153 193.902 94.7557 193.659 94.3452C193.415 93.9347 193.086 93.5834 192.694 93.3159L195.629 82.0591L189.974 83.9881L188.054 94.382C187.654 95.0793 187.521 95.901 187.679 96.6914C187.837 97.4818 188.275 98.186 188.911 98.6705C189.547 99.1549 190.336 99.3861 191.128 99.3202C191.921 99.2542 192.662 98.8957 193.211 98.3126Z" fill="#FFB6B6"/>
<path d="M196.3 44.2667L195.086 44.0112L194.051 44.5925C194.051 44.5925 191.159 48.5026 191.159 52.0868C191.159 55.6709 187.625 90.2096 187.625 90.2096L194.051 93.1421L199.192 66.0977L196.3 44.2667Z" fill="#3F3D56"/>
<path d="M216.313 22.9053C216.313 22.9053 218.287 19.0779 213.944 18.73C213.944 18.73 210.241 15.3237 206.467 18.1072C206.467 18.1072 204.408 18.1072 203.283 20.4697C203.283 20.4697 201.664 19.847 201.308 21.5135C201.308 21.5135 200.123 24.993 201.308 28.1245C202.493 31.2561 202.886 31.604 202.886 31.604C202.886 31.604 200.939 25.0386 205.678 24.6906C210.416 24.3427 215.719 21.3396 216.114 25.167C216.509 28.9944 217.103 29.9374 217.103 29.9374C217.103 29.9374 220.854 24.4711 216.313 22.9053Z" fill="#2F2E41"/>
<path d="M243.887 130.02C243.317 130.021 242.767 129.808 242.343 129.423L219.499 108.801C219.039 108.385 218.76 107.8 218.725 107.175C218.689 106.551 218.899 105.937 219.308 105.47L233.942 88.7981C234.353 88.3312 234.929 88.0486 235.545 88.0123C236.161 87.976 236.766 88.1889 237.227 88.6044L260.071 109.226C260.532 109.642 260.811 110.227 260.847 110.852C260.882 111.476 260.672 112.09 260.262 112.557L245.628 129.229C245.425 129.461 245.179 129.65 244.904 129.785C244.629 129.92 244.33 129.999 244.025 130.016C243.979 130.019 243.933 130.02 243.887 130.02Z" fill="white"/>
<path d="M243.887 130.172C243.28 130.173 242.695 129.946 242.243 129.536L219.4 108.915C218.91 108.471 218.614 107.849 218.575 107.184C218.537 106.52 218.761 105.867 219.197 105.369L233.83 88.6972C234.268 88.2005 234.881 87.8998 235.537 87.8612C236.192 87.8225 236.836 88.049 237.327 88.491L260.17 109.113C260.661 109.556 260.958 110.178 260.996 110.843C261.034 111.508 260.81 112.161 260.374 112.659L245.74 129.33C245.524 129.577 245.262 129.778 244.969 129.922C244.677 130.066 244.359 130.149 244.034 130.168C243.984 130.17 243.936 130.172 243.887 130.172ZM235.681 88.4631C235.416 88.4625 235.154 88.519 234.912 88.629C234.67 88.7389 234.454 88.8996 234.277 89.1006L219.644 105.772C219.313 106.15 219.143 106.645 219.172 107.149C219.201 107.653 219.426 108.125 219.798 108.462L242.641 129.083C242.825 129.249 243.04 129.377 243.273 129.459C243.506 129.542 243.753 129.576 243.999 129.562C244.245 129.547 244.486 129.484 244.708 129.375C244.93 129.266 245.129 129.114 245.293 128.927L259.927 112.255C260.258 111.878 260.428 111.383 260.399 110.878C260.37 110.374 260.145 109.902 259.773 109.566L236.929 88.9442C236.586 88.6336 236.141 88.4623 235.681 88.4631Z" fill="#3F3D56"/>
<path d="M252.17 114.231C251.924 114.232 251.686 114.14 251.502 113.973L233.57 97.786C233.471 97.697 233.39 97.589 233.332 97.4682C233.274 97.3473 233.24 97.2161 233.232 97.082C233.224 96.9478 233.243 96.8135 233.286 96.6865C233.329 96.5595 233.397 96.4425 233.485 96.3422C233.573 96.2418 233.68 96.1601 233.799 96.1016C233.919 96.0432 234.048 96.0092 234.181 96.0016C234.313 95.994 234.445 96.013 234.57 96.0575C234.695 96.1019 234.811 96.171 234.909 96.2606L252.841 112.448C252.993 112.586 253.101 112.767 253.149 112.968C253.198 113.169 253.185 113.38 253.112 113.574C253.039 113.767 252.91 113.934 252.742 114.051C252.574 114.169 252.375 114.231 252.17 114.231Z" fill="#F3CD03"/>
<path d="M248.75 118.127C248.503 118.128 248.265 118.036 248.081 117.869L230.15 101.682C230.051 101.593 229.971 101.485 229.913 101.364C229.855 101.243 229.822 101.112 229.814 100.979C229.807 100.845 229.825 100.711 229.868 100.584C229.912 100.457 229.979 100.341 230.067 100.24C230.155 100.14 230.262 100.059 230.381 100C230.5 99.942 230.629 99.9079 230.761 99.9002C230.893 99.8924 231.025 99.9111 231.15 99.9551C231.275 99.9992 231.39 100.068 231.489 100.157L249.42 116.344C249.573 116.482 249.68 116.663 249.729 116.864C249.777 117.065 249.764 117.277 249.692 117.47C249.619 117.664 249.49 117.83 249.322 117.947C249.154 118.065 248.954 118.127 248.75 118.127Z" fill="#F3CD03"/>
<path d="M245.33 122.024C245.083 122.025 244.845 121.933 244.661 121.766L226.73 105.579C226.631 105.49 226.55 105.382 226.492 105.261C226.435 105.14 226.401 105.009 226.393 104.875C226.386 104.741 226.404 104.607 226.447 104.48C226.491 104.354 226.558 104.237 226.646 104.137C226.734 104.036 226.841 103.955 226.96 103.896C227.079 103.838 227.209 103.804 227.341 103.796C227.473 103.788 227.605 103.807 227.73 103.851C227.855 103.896 227.97 103.964 228.069 104.054L246 120.241C246.153 120.379 246.26 120.56 246.309 120.761C246.357 120.962 246.344 121.173 246.272 121.367C246.199 121.56 246.07 121.727 245.902 121.844C245.734 121.962 245.534 122.024 245.33 122.024Z" fill="#F3CD03"/>
<path d="M224.823 98.9768C224.593 98.5585 224.456 98.0941 224.422 97.6164C224.388 97.1386 224.458 96.6591 224.627 96.2116C224.795 95.7641 225.058 95.3596 225.398 95.0264C225.737 94.6932 226.144 94.4396 226.591 94.2833L226.61 82.6396L231.586 85.9792L230.805 96.5243C231.014 97.3023 230.934 98.1312 230.581 98.8537C230.228 99.5763 229.625 100.142 228.888 100.445C228.151 100.747 227.33 100.765 226.581 100.494C225.832 100.223 225.206 99.6837 224.823 98.9768Z" fill="#FFB6B6"/>
<path d="M225.284 47.4574L227.507 45.2847L229.14 46.4798C229.14 46.4798 230.746 48.4348 232.031 54.2999C233.317 60.165 232.031 92.4227 232.031 92.4227L224.963 91.4452L225.927 74.5017L223.035 60.1649L225.284 47.4574Z" fill="#3F3D56"/>
<path d="M228.566 45.8143L221.078 42.1867L215.993 37.4043L206.722 37.334L203.731 41.2768L195.836 43.9968L197.152 71.6065L196.255 73.7296C196.255 73.7296 196.88 74.3022 197.165 74.6225C197.451 74.9428 196.771 77.6241 196.771 77.6241L196.387 80.5412L197.451 81.312L196.068 82.9686L195.725 85.5799C195.725 85.5799 219.864 79.4952 224.425 89.575C224.666 90.1076 224.073 84.9028 224.073 84.9028L223.48 81.0925L224.068 77.6725L224.966 76.7626L223.461 75.2365L224.425 67.9956L228.566 45.8143Z" fill="#3F3D56"/>
<path d="M58.7409 107.023C58.9267 106.545 59.0069 106.031 58.9756 105.517C58.9444 105.004 58.8025 104.504 58.5601 104.052C58.3176 103.6 57.9804 103.208 57.5722 102.903C57.1641 102.598 56.6949 102.387 56.1977 102.285L54.5342 89.8975L49.7109 94.1732L52.0301 105.281C51.9173 106.14 52.1189 107.01 52.5967 107.728C53.0745 108.445 53.7953 108.96 54.6225 109.175C55.4497 109.39 56.3259 109.289 57.0849 108.893C57.8439 108.496 58.4332 107.831 58.7409 107.023Z" fill="#FFB8B8"/>
<path d="M39.8441 52.1455L38.5367 52.3995L37.7465 53.4084C37.7465 53.4084 36.468 58.4936 37.9244 62.0474C39.3807 65.6011 49.91 101.323 49.91 101.323L57.473 101.546L51.5815 72.5828L39.8441 52.1455Z" fill="#3F3D56"/>
<path d="M69.6588 105.206C69.3104 104.832 69.0471 104.385 68.8873 103.897C68.7276 103.409 68.6753 102.891 68.7342 102.38C68.7931 101.87 68.9618 101.378 69.2282 100.94C69.4947 100.503 69.8526 100.13 70.2766 99.8476L67.2656 87.7241L73.3131 89.8678L75.2452 101.052C75.6655 101.806 75.7984 102.69 75.6189 103.536C75.4394 104.383 74.9599 105.133 74.2713 105.645C73.5827 106.157 72.7329 106.395 71.8828 106.314C71.0326 106.233 70.2413 105.839 69.6588 105.206Z" fill="#FFB8B8"/>
<path d="M67.0167 47.14L68.3231 46.8813L69.4273 47.5187C69.4273 47.5187 72.4832 51.7538 72.4385 55.602C72.3937 59.4502 75.7574 96.5778 75.7574 96.5778L68.8216 99.6438L63.6396 70.5417L67.0167 47.14Z" fill="#3F3D56"/>
</g>
<defs>
<clipPath id="clip0_4886_658">
<rect width="261" height="179" fill="white"/>
</clipPath>
</defs>
</svg>
