<svg width="315" height="294" viewBox="0 0 315 294" fill="none" xmlns="http://www.w3.org/2000/svg">
<g clip-path="url(#clip0_4912_3)">
<path d="M15.1997 100.187L0.011158 91.0635C-0.193718 81.3028 1.83873 71.6363 5.93203 62.9033C9.43382 79.8529 27.8625 87.9169 36.3653 102.716C38.984 107.353 40.5907 112.56 41.0662 117.949C41.5416 123.339 40.8738 128.773 39.112 133.85L40.1109 146.992C32.261 144.484 25.0141 140.192 18.8695 134.41C12.7249 128.628 7.82872 121.495 4.51831 113.501C2.70283 108.997 1.42647 104.266 0.719352 99.422C7.80089 100.226 15.1997 100.187 15.1997 100.187Z" fill="#3F3D56"/>
<path d="M288.239 266.159L288.704 254.991C293.56 252.224 298.975 250.762 304.48 250.732C296.903 257.338 297.85 270.073 292.713 278.956C291.091 281.714 288.908 284.047 286.326 285.782C283.743 287.518 280.828 288.611 277.795 288.982L271.454 293.122C270.584 287.949 270.776 282.637 272.017 277.551C273.257 272.466 275.517 267.727 278.64 263.662C280.413 261.401 282.446 259.386 284.691 257.666C286.21 261.936 288.239 266.159 288.239 266.159Z" fill="#F3CD03"/>
<path d="M271.901 287.375L266.16 287.374L263.429 263.759L271.902 263.759L271.901 287.375Z" fill="#FFB6B6"/>
<path d="M273.366 293.309L254.854 293.308V293.058C254.854 291.021 255.613 289.066 256.964 287.625C258.315 286.184 260.148 285.375 262.059 285.374L265.441 282.639L271.75 285.375L273.366 285.375L273.366 293.309Z" fill="#2F2E41"/>
<path d="M245.228 287.375L239.487 287.374L236.756 263.759L245.23 263.759L245.228 287.375Z" fill="#FFB6B6"/>
<path d="M246.693 293.309L228.181 293.308V293.058C228.181 291.021 228.94 289.066 230.291 287.625C231.642 286.184 233.475 285.375 235.386 285.374L238.768 282.639L245.077 285.375L246.693 285.375L246.693 293.309Z" fill="#2F2E41"/>
<path d="M242.744 158.266L280.087 159.261C287.18 163.369 287.287 172.261 284.964 182.817C284.964 182.817 285.748 189.092 284.179 190.765C282.61 192.438 281.826 192.438 282.61 195.366C283.395 198.294 279.25 203.077 279.753 203.614C280.257 204.151 281.433 207.079 281.433 207.079L277.511 230.922C277.511 230.922 274.765 272.334 273.981 273.17C273.196 274.007 272.412 273.17 273.196 275.262C273.981 277.353 274.765 276.517 273.981 277.353C273.286 278.152 272.631 278.99 272.019 279.863H262.536C262.536 279.863 261.821 275.68 261.821 275.262C261.821 274.843 261.037 272.334 261.037 271.915C261.037 271.497 261.73 270.757 261.73 270.757C261.97 269.907 262.131 269.034 262.213 268.15C262.213 267.314 264.567 235.105 264.567 235.105L259.86 193.275L248.485 234.268C248.485 234.268 248.485 270.242 247.7 271.079C246.916 271.915 246.916 271.497 247.308 273.17C247.7 274.843 249.269 274.425 248.093 275.68C246.916 276.935 246.524 274.843 246.916 276.935L247.308 279.026L235.541 279.206C235.541 279.206 233.972 275.68 234.756 274.425C235.541 273.17 235.494 273.513 234.537 271.459C233.579 269.405 233.187 268.987 233.579 268.569C233.972 268.151 233.972 265.926 233.972 265.926L235.933 225.902C235.933 225.902 236.325 183.654 236.325 182.399C236.355 181.753 236.243 181.109 235.999 180.517V178.814L237.502 172.778L242.744 158.266Z" fill="#2F2E41"/>
<path d="M265.176 75.458C271.584 75.458 276.779 69.9182 276.779 63.0845C276.779 56.2508 271.584 50.7109 265.176 50.7109C258.768 50.7109 253.573 56.2508 253.573 63.0845C253.573 69.9182 258.768 75.458 265.176 75.458Z" fill="#FFB6B6"/>
<path d="M259.375 83.636C256.875 85.2208 255.38 88.1326 254.522 91.0956C252.933 96.5813 251.976 102.253 251.673 107.985L250.767 125.147L239.538 161.69C249.269 170.471 285.848 163.685 285.848 163.685C285.848 163.685 286.971 163.286 285.848 162.089C284.725 160.891 283.632 161.952 284.755 160.755C285.878 159.557 285.104 160.891 284.73 159.694C284.355 158.496 284.73 159.295 285.104 158.896C285.478 158.496 282.206 154.904 282.206 154.904L285.201 133.928L288.944 91.6189C284.452 85.6317 275.419 82.1023 275.419 82.1023L273.085 77.6221L261.416 78.6177L259.375 83.636Z" fill="#EDEDED"/>
<path d="M257.784 55.8226C258.232 55.8263 258.679 55.8888 259.114 56.0087C259.971 56.2284 260.841 56.384 261.718 56.4744C264.404 56.7439 266.928 57.9656 268.887 59.9442C270.845 61.9228 272.126 64.5444 272.524 67.3901C273.198 66.7632 274.732 65.6101 275.989 66.6818C276.008 66.6988 276.02 66.7075 276.064 66.6852C276.899 66.2627 278.381 61.0626 278.426 56.4839C278.45 54.0537 278.091 50.9505 276.248 49.9678L276.151 49.916L276.126 49.8035C276.003 49.2568 274.627 48.3237 272.236 47.5974C267.891 46.2776 261.414 43.7065 257.766 47.4903C257.49 48.7659 256.592 51.4957 255.685 51.8051C254.681 52.1476 253.813 52.4432 253.677 53.7572C253.562 55.6272 253.571 57.5033 253.701 59.372C254.042 58.2285 254.71 57.2277 255.612 56.5104C256.253 56.0501 257.011 55.8101 257.784 55.8226Z" fill="#2F2E41"/>
<path d="M236.187 124.192L255.14 111.248L245.594 97.7148L236.168 110.08L206.798 112.001C206.025 111.187 205.048 110.63 203.983 110.398C202.919 110.166 201.815 110.269 200.804 110.695C199.794 111.121 198.922 111.852 198.295 112.797C197.667 113.743 197.311 114.862 197.27 116.02C197.228 117.177 197.504 118.323 198.063 119.316C198.621 120.31 199.439 121.108 200.416 121.615C201.392 122.121 202.486 122.314 203.564 122.169C204.642 122.023 205.656 121.547 206.485 120.798L236.187 124.192Z" fill="#FFB6B6"/>
<path d="M272.732 93.1794C273.832 100.279 253.059 113.836 253.059 113.836C253.058 112.169 240.66 124.749 240.1 123.367C238.51 119.44 237.391 110.136 235.169 108.647C233.898 107.796 242.824 99.796 242.824 99.796C242.824 99.796 247.496 94.7763 253.628 88.4447C255.33 86.6203 257.438 85.285 259.754 84.5629C262.07 83.8408 264.521 83.7555 266.876 84.3148C266.876 84.3148 271.632 86.08 272.732 93.1794Z" fill="#EDEDED"/>
<path d="M311.797 127.59L299.26 107.656L286.775 118.121L298.568 127.909L300.99 159.182C300.243 160.023 299.742 161.078 299.547 162.217C299.352 163.357 299.472 164.532 299.893 165.6C300.314 166.668 301.017 167.582 301.917 168.232C302.816 168.881 303.873 169.237 304.96 169.256C306.046 169.276 307.113 168.958 308.033 168.341C308.953 167.724 309.684 166.836 310.138 165.784C310.592 164.731 310.75 163.561 310.591 162.415C310.432 161.269 309.964 160.197 309.244 159.33L311.797 127.59Z" fill="#FFB6B6"/>
<path d="M281.949 89.2833C288.582 87.9602 301.731 109.821 301.731 109.821C300.169 109.857 312.225 122.81 310.941 123.436C307.293 125.215 298.595 126.604 297.246 129.005C296.474 130.378 288.786 121.031 288.786 121.031C288.786 121.031 283.981 116.156 277.915 109.752C276.169 107.976 274.872 105.757 274.146 103.303C273.42 100.848 273.288 98.2378 273.763 95.7143C273.763 95.7143 275.317 90.6065 281.949 89.2833Z" fill="#EDEDED"/>
<path d="M315 293.408C315 293.486 314.986 293.563 314.958 293.635C314.93 293.707 314.889 293.772 314.838 293.827C314.786 293.882 314.725 293.926 314.657 293.956C314.59 293.985 314.517 294 314.444 294H183.607C183.46 294 183.319 293.938 183.214 293.827C183.11 293.716 183.052 293.565 183.052 293.408C183.052 293.251 183.11 293.1 183.214 292.989C183.319 292.878 183.46 292.815 183.607 292.815H314.444C314.517 292.815 314.59 292.83 314.657 292.86C314.725 292.89 314.786 292.933 314.838 292.988C314.889 293.043 314.93 293.109 314.958 293.181C314.986 293.253 315 293.33 315 293.408Z" fill="#CCCCCC"/>
<path d="M193.794 113.893H35.0057C32.5248 113.896 30.1464 114.948 28.3922 116.819C26.638 118.689 25.6512 121.226 25.6484 123.871V229.3C25.6513 231.945 26.638 234.482 28.3922 236.352C30.1464 238.223 32.5248 239.275 35.0057 239.278H193.794C196.275 239.275 198.654 238.223 200.408 236.352C202.162 234.482 203.149 231.945 203.152 229.3V123.871C203.149 121.226 202.162 118.689 200.408 116.819C198.654 114.948 196.275 113.896 193.794 113.893Z" fill="#F9D126"/>
<path d="M193.794 113.893H35.0057C32.5248 113.896 30.1464 114.948 28.3922 116.819C26.638 118.689 25.6512 121.226 25.6484 123.871V229.3C25.6513 231.945 26.638 234.482 28.3922 236.352C30.1464 238.223 32.5248 239.275 35.0057 239.278H193.794C196.275 239.275 198.654 238.223 200.408 236.352C202.162 234.482 203.149 231.945 203.152 229.3V123.871C203.149 121.226 202.162 118.689 200.408 116.819C198.654 114.948 196.275 113.896 193.794 113.893ZM196.865 189.623C196.827 200.356 192.846 210.646 185.776 218.285C178.706 225.924 169.11 230.304 159.046 230.484C142.934 230.708 167.961 230.795 148.529 230.795C104.094 230.795 57.7599 230.342 40.4723 230.049C38.1978 229.999 36.0318 229.002 34.4366 227.273C32.8415 225.543 31.9437 223.216 31.9349 220.79V123.879C31.9358 123.01 32.2593 122.177 32.8346 121.562C33.41 120.947 34.1903 120.6 35.005 120.597H193.788C194.603 120.598 195.384 120.943 195.96 121.556C196.537 122.17 196.862 123.002 196.865 123.87V189.623Z" fill="#3F3D56"/>
<path d="M174.247 53.1836H53.2671C52.1967 53.1852 51.1528 53.5391 50.278 54.197C49.4033 54.8548 48.7402 55.7846 48.3793 56.8593L29.6947 112.762C29.4159 113.597 29.3289 114.49 29.4412 115.368C29.5534 116.245 29.8616 117.082 30.3398 117.806C30.8181 118.53 31.4523 119.121 32.1893 119.53C32.9264 119.939 33.7446 120.153 34.5752 120.154L196.83 120.461H196.837C197.696 120.461 198.541 120.234 199.297 119.799C200.053 119.365 200.696 118.738 201.169 117.973C201.642 117.209 201.929 116.331 202.005 115.419C202.082 114.507 201.945 113.589 201.606 112.747L179.017 56.5374C178.617 55.5415 177.953 54.6927 177.105 54.0964C176.257 53.5002 175.263 53.1827 174.247 53.1836Z" fill="#3F3D56"/>
<path d="M202.027 113.961C202.026 114.711 201.883 115.453 201.606 116.142L179.018 159.41C178.616 160.404 177.95 161.251 177.103 161.846C176.255 162.441 175.263 162.759 174.248 162.761H53.2691C52.1983 162.76 51.1539 162.406 50.2784 161.749C49.4029 161.091 48.739 160.162 48.3771 159.087L29.6961 116.127C29.4671 115.442 29.3669 114.716 29.4011 113.991C29.4353 113.265 29.6033 112.553 29.8955 111.897C30.1877 111.241 30.5983 110.652 31.1039 110.165C31.6096 109.678 32.2003 109.302 32.8423 109.058C33.3976 108.844 33.9836 108.735 34.5741 108.734L54.3941 108.695L62.4836 108.68L168.931 108.481L177.025 108.466L196.831 108.426H196.836C198.212 108.426 199.532 109.009 200.506 110.047C201.479 111.085 202.026 112.493 202.027 113.961Z" fill="#3F3D56"/>
<path d="M46.9092 192.976C49.3082 192.976 82.2519 195.123 82.2519 197.681C82.2519 200.239 49.3082 202.24 46.9092 202.24C45.7572 202.24 44.6523 201.752 43.8377 200.883C43.0231 200.015 42.5654 198.836 42.5654 197.608C42.5654 196.379 43.0231 195.201 43.8377 194.332C44.6523 193.464 45.7572 192.976 46.9092 192.976Z" fill="#3F3D56"/>
<path d="M166.714 19.1758H64.706C61.9722 19.1792 59.3513 20.3388 57.4182 22.4003C55.4851 24.4618 54.3977 27.2568 54.3945 30.1722V162.761H174.248C175.232 162.765 176.196 162.466 177.026 161.9V30.1722C177.022 27.2568 175.935 24.4618 174.002 22.4003C172.069 20.3388 169.448 19.1792 166.714 19.1758Z" fill="#E6E6E6"/>
<path d="M127.778 28.0908H71.8753C69.3859 28.0934 66.9992 29.1488 65.2385 31.0255C63.4779 32.9022 62.4871 35.4469 62.4834 38.1016V162.761H168.931V71.9769C168.918 60.3417 164.578 49.1869 156.864 40.9596C149.149 32.7322 138.689 28.1042 127.778 28.0908Z" fill="white"/>
<path d="M150.796 151.689H80.6183C80.0117 151.689 79.4299 151.946 79.001 152.404C78.572 152.861 78.3311 153.482 78.3311 154.129C78.3311 154.776 78.572 155.396 79.001 155.853C79.4299 156.311 80.0117 156.568 80.6183 156.568H150.796C151.403 156.568 151.984 156.311 152.413 155.853C152.842 155.396 153.083 154.776 153.083 154.129C153.083 153.482 152.842 152.861 152.413 152.404C151.984 151.946 151.403 151.689 150.796 151.689Z" fill="#E4E4E4"/>
<path d="M150.796 142.043H80.6187C80.0115 142.043 79.4291 142.3 78.9997 142.758C78.5703 143.216 78.3291 143.837 78.3291 144.485C78.3291 145.132 78.5703 145.753 78.9997 146.211C79.4291 146.669 80.0115 146.926 80.6187 146.926H150.796C151.404 146.926 151.986 146.669 152.415 146.211C152.845 145.753 153.086 145.132 153.086 144.485C153.086 143.837 152.845 143.216 152.415 142.758C151.986 142.3 151.404 142.043 150.796 142.043Z" fill="#E4E4E4"/>
<path d="M111.039 132.4H80.6183C80.0117 132.4 79.4299 132.657 79.001 133.115C78.572 133.572 78.3311 134.193 78.3311 134.84C78.3311 135.487 78.572 136.107 79.001 136.564C79.4299 137.022 80.0117 137.279 80.6183 137.279H111.039C111.646 137.279 112.228 137.022 112.657 136.564C113.085 136.107 113.326 135.487 113.326 134.84C113.326 134.193 113.085 133.572 112.657 133.115C112.228 132.657 111.646 132.4 111.039 132.4Z" fill="#E4E4E4"/>
<path d="M150.796 112.199H80.6187C80.0115 112.199 79.4291 112.456 78.9997 112.914C78.5703 113.372 78.3291 113.993 78.3291 114.641C78.3291 115.289 78.5703 115.91 78.9997 116.367C79.4291 116.825 80.0115 117.083 80.6187 117.083H150.796C151.404 117.083 151.986 116.825 152.415 116.367C152.845 115.91 153.086 115.289 153.086 114.641C153.086 113.993 152.845 113.372 152.415 112.914C151.986 112.456 151.404 112.199 150.796 112.199Z" fill="#E4E4E4"/>
<path d="M150.796 102.557H80.6183C80.0117 102.557 79.4299 102.814 79.001 103.271C78.572 103.729 78.3311 104.349 78.3311 104.996C78.3311 105.643 78.572 106.263 79.001 106.721C79.4299 107.178 80.0117 107.435 80.6183 107.435H150.796C151.403 107.435 151.984 107.178 152.413 106.721C152.842 106.263 153.083 105.643 153.083 104.996C153.083 104.349 152.842 103.729 152.413 103.271C151.984 102.814 151.403 102.557 150.796 102.557Z" fill="#E4E4E4"/>
<path d="M111.04 92.9092H80.6187C80.0115 92.9092 79.4291 93.1664 78.9997 93.6243C78.5703 94.0823 78.3291 94.7033 78.3291 95.3509C78.3291 95.9985 78.5703 96.6195 78.9997 97.0774C79.4291 97.5353 80.0115 97.7926 80.6187 97.7926H111.04C111.647 97.7926 112.229 97.5353 112.659 97.0774C113.088 96.6195 113.329 95.9985 113.329 95.3509C113.329 94.7033 113.088 94.0823 112.659 93.6243C112.229 93.1664 111.647 92.9092 111.04 92.9092Z" fill="#E4E4E4"/>
<path d="M150.796 72.709H80.6187C80.0115 72.709 79.4291 72.9662 78.9997 73.4241C78.5703 73.8821 78.3291 74.5031 78.3291 75.1507C78.3291 75.7983 78.5703 76.4193 78.9997 76.8772C79.4291 77.3351 80.0115 77.5924 80.6187 77.5924H150.796C151.404 77.5924 151.986 77.3351 152.415 76.8772C152.845 76.4193 153.086 75.7983 153.086 75.1507C153.086 74.5031 152.845 73.8821 152.415 73.4241C151.986 72.9662 151.404 72.709 150.796 72.709Z" fill="#F9D126"/>
<path d="M150.796 63.0664H80.6187C80.0115 63.0664 79.4291 63.3237 78.9997 63.7816C78.5703 64.2395 78.3291 64.8605 78.3291 65.5081C78.3291 66.1557 78.5703 66.7768 78.9997 67.2347C79.4291 67.6926 80.0115 67.9498 80.6187 67.9498H150.796C151.404 67.9498 151.986 67.6926 152.415 67.2347C152.845 66.7768 153.086 66.1557 153.086 65.5081C153.086 64.8605 152.845 64.2395 152.415 63.7816C151.986 63.3237 151.404 63.0664 150.796 63.0664Z" fill="#F9D126"/>
<path d="M111.04 53.4189H80.6187C80.0115 53.4189 79.4291 53.6762 78.9997 54.1341C78.5703 54.592 78.3291 55.2131 78.3291 55.8607C78.3291 56.5082 78.5703 57.1293 78.9997 57.5872C79.4291 58.0451 80.0115 58.3024 80.6187 58.3024H111.04C111.647 58.3024 112.229 58.0451 112.659 57.5872C113.088 57.1293 113.329 56.5082 113.329 55.8607C113.329 55.2131 113.088 54.592 112.659 54.1341C112.229 53.6762 111.647 53.4189 111.04 53.4189Z" fill="#F9D126"/>
<path d="M173.201 37.9949C183.039 37.9949 191.015 29.4895 191.015 18.9975C191.015 8.50545 183.039 0 173.201 0C163.362 0 155.387 8.50545 155.387 18.9975C155.387 29.4895 163.362 37.9949 173.201 37.9949Z" fill="#F9D126"/>
<path d="M170.77 28.8843C170.463 28.8843 170.159 28.8079 169.884 28.6612C169.609 28.5144 169.37 28.3013 169.185 28.0388L164.325 21.1283C164.168 20.9064 164.054 20.6536 163.989 20.3845C163.924 20.1153 163.909 19.8351 163.945 19.5598C163.982 19.2846 164.069 19.0197 164.202 18.7804C164.334 18.5411 164.51 18.3321 164.718 18.1653C164.927 17.9985 165.164 17.8772 165.417 17.8084C165.669 17.7396 165.932 17.7247 166.19 17.7644C166.448 17.8041 166.696 17.8977 166.92 18.0398C167.144 18.1819 167.34 18.3698 167.496 18.5927L170.675 23.1133L178.842 10.0504C179.133 9.58407 179.587 9.26034 180.102 9.15042C180.617 9.0405 181.152 9.15341 181.59 9.4643C182.027 9.77519 182.331 10.2586 182.434 10.8082C182.537 11.3578 182.431 11.9285 182.139 12.3948L172.419 27.9432C172.243 28.2244 172.007 28.4566 171.73 28.6202C171.452 28.7838 171.142 28.8742 170.826 28.8836C170.807 28.884 170.789 28.8843 170.77 28.8843Z" fill="white"/>
</g>
<defs>
<clipPath id="clip0_4912_3">
<rect width="315" height="294" fill="white"/>
</clipPath>
</defs>
</svg>
